<svg id="Layer_1" data-name="Layer 1" xmlns="http://www.w3.org/2000/svg" width="1000" height="1000" viewBox="0 0 1000 1000"><defs><style>.cls-1,.cls-2{fill:none;}.cls-1,.cls-3{stroke:#000;}.cls-1,.cls-2,.cls-3{stroke-miterlimit:10;stroke-width:3px;}.cls-2{stroke:#231f20;}</style></defs><polyline class="cls-1" points="507.09 835.92 502.86 860.6 571.23 860.6 625.62 545.2"/><polyline class="cls-1" points="636.75 480.65 649.59 406.21 650.39 401.53"/><polyline class="cls-1" points="572.64 453.84 570.93 463.81 518.27 770.79"/><polyline class="cls-1" points="490.66 582.03 508.32 479.08 510.43 466.8"/><line class="cls-1" x1="479.86" y1="644.97" x2="442.87" y2="860.6"/><polyline class="cls-1" points="453.64 461.8 451.23 475.88 385.23 860.6"/><line class="cls-1" x1="397.25" y1="439.54" x2="397.25" y2="439.53"/><line class="cls-1" x1="394.48" y1="455.68" x2="354" y2="691.63"/><line class="cls-1" x1="342.85" y1="756.59" x2="325.01" y2="860.6"/><line class="cls-1" x1="313.93" y1="570.3" x2="275.18" y2="796.17"/><line class="cls-1" x1="340.62" y1="414.72" x2="325.09" y2="505.24"/><line class="cls-1" x1="266.4" y1="847.38" x2="264.13" y2="860.6"/><line class="cls-1" x1="302.94" y1="360.28" x2="219.05" y2="849.27"/><path class="cls-1" d="M808.1,183.69c58,11.76,80.51,66.16,80.51,133.82l2.24,338.13"/><polyline class="cls-1" points="891.29 721.67 892.21 860.6 576.03 860.6"/><path class="cls-1" d="M889.27,417.73c0-76.59-29.46-138.68-106-138.68"/><line class="cls-2" x1="782.94" y1="280.68" x2="782.94" y2="210.63"/><path class="cls-2" d="M782.94,152.1V136.82A105.73,105.73,0,0,0,677.2,31.09H409.12c-85.08,0-158.66,30.9-193.77,92-14,24.43-21.94,53.7-21.94,87.75V704.41"/><path class="cls-2" d="M571.23,860.6H254.49a61.08,61.08,0,0,1-61.08-61.08"/><path class="cls-2" d="M831.32,498.53v102a258.8,258.8,0,0,1-44.08,144.9"/><line class="cls-2" x1="831.32" y1="432.5" x2="831.32" y2="289.4"/><path class="cls-2" d="M571.23,860.6a259.1,259.1,0,0,0,172.56-65.48"/><path class="cls-1" d="M284.77,236.19c-52.1-5-73.48-27.28-88.47-57.36h-7.88"/><path class="cls-1" d="M207.39,122.89h7.88s0,.11.08.16c15.39,30.77,37.5,53.32,92.45,57.55,6.17.48,12.75.72,19.79.72H758.83"/><path class="cls-1" d="M782.94,124.41A172.55,172.55,0,0,1,949,296.84"/><line class="cls-1" x1="949" y1="878.03" x2="949" y2="289.4"/><line class="cls-1" x1="908.3" y1="955.84" x2="215.6" y2="955.84"/><path class="cls-1" d="M215.27,122.89h0c-99.08,0-179.4,58.43-179.4,179.41V839.13c0,68.69,55.68,116.71,124.37,116.71H912.62"/><path class="cls-1" d="M91.22,514.91V300c0-66.91,35.27-121.16,102.19-121.16"/><polyline class="cls-1" points="91.22 580.94 91.22 716.2 91.22 937.33"/><line class="cls-1" x1="256.63" y1="344.23" x2="193.41" y2="704.41"/><line class="cls-1" x1="654.75" y1="693.88" x2="627.19" y2="854.57"/><line class="cls-1" x1="720.87" y1="308.45" x2="665.92" y2="628.79"/><path class="cls-3" d="M675.14,369c-35.79,66.07-104.72,110.8-183.87,110.8-116,0-210-96-210-214.53a217.87,217.87,0,0,1,16.34-83.1q6.11.48,12.74.65a204.85,204.85,0,0,0-15.7,78.9c0,113.42,91.95,205.36,205.37,205.36A205.21,205.21,0,0,0,675.14,369Z"/><path class="cls-1" d="M689.68,182.87A205.72,205.72,0,0,1,675.14,369c16.66-30.74,30.22-69.65,30.22-107.28,0-29.18-5.35-53.45-15.68-78.8"/><ellipse class="cls-1" cx="488.17" cy="269.28" rx="264.66" ry="42.83" transform="translate(-21.61 43.56) rotate(-5)"/><ellipse class="cls-1" cx="491.26" cy="304.61" rx="264.66" ry="42.83" transform="translate(-24.67 43.96) rotate(-5)"/><line class="cls-1" x1="227.61" y1="327.67" x2="224.86" y2="289.4"/><line class="cls-1" x1="754.71" y1="282.78" x2="751.96" y2="244.51"/><path d="M774.52,774.07a11.8,11.8,0,0,1-1.9-3.88,19.94,19.94,0,0,1-.22-6.09,21.56,21.56,0,0,1,1.39-5.75c.28-.78,1-2.72,1.26-3.63.16-.48,1-2.06,1.13-2.5-.78.82-2.34,3.13-3.08,4-2.77,3.3-6.34,6.21-10.19,7.48a15.82,15.82,0,0,1-6.82.65,29.62,29.62,0,0,1-6.34-1.84c.36.28,1.74,1.64,2.11,2.06.74.82,1.69,1.75,2.41,2.6a24.7,24.7,0,0,1,2.29,2.78c1.62,2.64,1.52,6.64.79,9.95a34.2,34.2,0,0,1-1.54,5.54l-1.89,4.72s2.15-2.81,3.17-4c6.8-8.29,14.52-10,23.7-5.27C778.88,778.55,776.33,776.58,774.52,774.07Z"/><path d="M899.4,686.12a11.55,11.55,0,0,1-3.65-2.31,19.66,19.66,0,0,1-3.39-5.06,21.54,21.54,0,0,1-1.84-5.62c-.18-.81-.62-2.81-.84-3.74-.11-.5-.24-2.27-.35-2.73-.23,1.11-.35,3.9-.51,5-.62,4.26-2.13,8.61-4.74,11.72a15.78,15.78,0,0,1-5.46,4.14,29.37,29.37,0,0,1-6.36,1.77c.45,0,2.35.48,2.88.64,1.06.31,2.36.6,3.41.94a23.27,23.27,0,0,1,3.41,1.17c2.77,1.39,4.79,4.84,5.91,8a34.58,34.58,0,0,1,1.6,5.53c.13.79.88,5,.88,5s.35-3.52.56-5.11c1.43-10.63,7.08-16.17,17.39-16.95C905.47,687.64,902.26,687.3,899.4,686.12Z"/><path d="M793,179.61a11.62,11.62,0,0,1-3.66-2.3,20,20,0,0,1-3.39-5.07,21.42,21.42,0,0,1-1.84-5.62c-.18-.81-.62-2.81-.84-3.74-.11-.49-.24-2.27-.34-2.72-.24,1.1-.36,3.89-.52,5-.62,4.26-2.13,8.61-4.74,11.72a15.63,15.63,0,0,1-5.46,4.13,30,30,0,0,1-6.36,1.78,28.93,28.93,0,0,1,2.88.63c1.06.31,2.36.6,3.41,1a24.46,24.46,0,0,1,3.41,1.16c2.77,1.39,4.79,4.85,5.91,8.05a34,34,0,0,1,1.6,5.53c.13.78.88,5,.88,5s.35-3.52.56-5.11c1.43-10.63,7.08-16.17,17.39-16.94C799.06,181.13,795.86,180.79,793,179.61Z"/><path d="M100.46,546A11.81,11.81,0,0,1,97,543.45a20,20,0,0,1-3.08-5.26,21.63,21.63,0,0,1-1.5-5.72c-.13-.82-.45-2.84-.61-3.79-.09-.5-.11-2.28-.19-2.74-.3,1.09-.58,3.87-.82,5-.87,4.22-2.63,8.47-5.42,11.42a15.68,15.68,0,0,1-5.7,3.8,29,29,0,0,1-6.45,1.39c.45.07,2.31.62,2.83.81,1,.38,2.32.74,3.35,1.15a24.11,24.11,0,0,1,3.34,1.36c2.68,1.56,4.49,5.12,5.42,8.39a34.52,34.52,0,0,1,1.27,5.61c.08.79.57,5,.57,5s.56-3.49.87-5.07c2.06-10.53,8-15.71,18.37-15.88C106.43,547.84,103.25,547.31,100.46,546Z"/><path d="M202.68,742.71a11.56,11.56,0,0,1-3.53-2.5,20.26,20.26,0,0,1-3.1-5.24,21.57,21.57,0,0,1-1.53-5.72c-.13-.82-.46-2.84-.62-3.78-.09-.5-.13-2.28-.2-2.74-.3,1.09-.57,3.87-.8,5-.85,4.22-2.6,8.48-5.37,11.44a15.73,15.73,0,0,1-5.69,3.83,30.05,30.05,0,0,1-6.44,1.42c.45.07,2.31.61,2.83.79,1.05.37,2.33.73,3.36,1.14a22.88,22.88,0,0,1,3.34,1.35c2.69,1.54,4.52,5.1,5.46,8.36a35.4,35.4,0,0,1,1.29,5.61c.09.79.6,5,.6,5s.54-3.49.84-5.07c2-10.53,8-15.75,18.3-16C208.65,744.57,205.47,744.05,202.68,742.71Z"/><path d="M670.11,660.61a11.61,11.61,0,0,1-3.17-2.94,19.51,19.51,0,0,1-2.4-5.6,21.14,21.14,0,0,1-.78-5.86c0-.83-.09-2.88-.13-3.83,0-.51.17-2.28.15-2.75-.43,1-1.06,3.77-1.43,4.86-1.39,4.07-3.67,8.07-6.81,10.65a15.76,15.76,0,0,1-6.12,3.06,29.89,29.89,0,0,1-6.58.58c.43.12,2.22.9,2.71,1.15,1,.5,2.21,1,3.18,1.55a25.51,25.51,0,0,1,3.14,1.77c2.47,1.88,3.82,5.65,4.33,9a34.33,34.33,0,0,1,.56,5.73c0,.79-.06,5.08-.06,5.08s1-3.4,1.5-4.92c3.35-10.19,9.92-14.59,20.2-13.46C675.8,663.22,672.7,662.3,670.11,660.61Z"/><path d="M249.74,321.85a5.15,5.15,0,0,1-1.41-1.51,14.25,14.25,0,0,1-1.25-3.17,19.59,19.59,0,0,1-.61-3.44c-.05-.5-.18-1.71-.25-2.28,0-.3-.05-1.38-.08-1.66-.11.66-.22,2.34-.31,3a18.49,18.49,0,0,1-2.16,6.9A7,7,0,0,1,241.4,322a8.69,8.69,0,0,1-2.58.85,9.65,9.65,0,0,1,1.14.48c.41.22.93.44,1.34.68a7.91,7.91,0,0,1,1.34.82c1.07.93,1.8,3.07,2.18,5a30.91,30.91,0,0,1,.52,3.38c0,.48.24,3.05.24,3.05s.21-2.11.33-3.06c.81-6.36,3.19-9.5,7.32-9.63C252.13,323,250.85,322.65,249.74,321.85Z"/><path d="M727.58,284.08c3.37-.43,5.81,2.35,7.5,8.51.26.92.78,3,.78,3s-.26-2.56-.31-3c-.11-1.14-.12-2.3-.13-3.4,0-2,.22-4.21.94-5.27a6.92,6.92,0,0,1,.95-1c.3-.29.68-.57,1-.85a6.22,6.22,0,0,1,.84-.62,6.34,6.34,0,0,1-2.23-.5,6.64,6.64,0,0,1-2.22-2,21.57,21.57,0,0,1-2.87-6.52c-.18-.66-.54-2.3-.75-2.93,0,.27.19,1.34.21,1.64,0,.57.13,1.79.17,2.28a22.69,22.69,0,0,1,.07,3.48,15.93,15.93,0,0,1-.49,3.29,4.93,4.93,0,0,1-.9,1.68A32.18,32.18,0,0,1,727.58,284.08Z"/><path d="M333.5,264.54a5.89,5.89,0,0,1-2-.9,10.12,10.12,0,0,1-2.1-2.31,10.63,10.63,0,0,1-1.35-2.72c-.15-.4-.53-1.38-.71-1.84-.09-.24-.29-1.13-.38-1.35,0,.57.12,2,.12,2.59a12.19,12.19,0,0,1-1.54,6.3,8,8,0,0,1-2.46,2.5,15.21,15.21,0,0,1-3.09,1.38,13.32,13.32,0,0,1,1.5.1c.56.08,1.24.13,1.81.23a11.11,11.11,0,0,1,1.81.34,7.29,7.29,0,0,1,3.6,3.64,17.6,17.6,0,0,1,1.22,2.69l.82,2.47s-.08-1.81-.09-2.63c-.07-5.5,2.39-8.73,7.56-9.9C336.7,264.86,335,264.93,333.5,264.54Z"/><path d="M513.83,240.62a6.18,6.18,0,0,1-1.83-1.26,10.21,10.21,0,0,1-1.63-2.66,11.52,11.52,0,0,1-.83-2.92c-.07-.42-.25-1.46-.35-1.94,0-.25-.08-1.17-.12-1.4-.14.56-.26,2-.37,2.57a12.16,12.16,0,0,1-2.67,5.9,8,8,0,0,1-2.88,2,16,16,0,0,1-3.3.78c.23,0,1.19.29,1.46.38.54.19,1.2.36,1.73.56a11,11,0,0,1,1.73.67,7.33,7.33,0,0,1,2.86,4.24,18.8,18.8,0,0,1,.71,2.87c.05.4.34,2.58.34,2.58s.25-1.8.4-2.6c.95-5.42,4-8.14,9.26-8.33C516.91,241.52,515.27,241.28,513.83,240.62Z"/><path d="M411.63,333.3a7.13,7.13,0,0,1-2.19-1.5,12.07,12.07,0,0,1-1.95-3.19,13.21,13.21,0,0,1-1-3.49c-.08-.5-.31-1.74-.42-2.31-.05-.31-.09-1.4-.14-1.68-.18.67-.32,2.38-.45,3.07a14.6,14.6,0,0,1-3.19,7.07,9.65,9.65,0,0,1-3.45,2.4,18,18,0,0,1-3.94.92c.28,0,1.43.36,1.75.47.64.21,1.43.42,2.07.66a14.38,14.38,0,0,1,2.06.8c1.66.92,2.82,3.08,3.42,5.07a21.23,21.23,0,0,1,.85,3.43c.06.49.41,3.09.41,3.09s.3-2.15.47-3.12c1.14-6.48,4.74-9.73,11.08-9.95C415.31,334.38,413.35,334.1,411.63,333.3Z"/><path d="M622.28,312a7.16,7.16,0,0,1-2.41-1.09,12,12,0,0,1-2.48-2.8,13,13,0,0,1-1.59-3.26c-.17-.48-.61-1.65-.82-2.2-.11-.29-.34-1.36-.44-1.63,0,.69.11,2.4.11,3.1a14.68,14.68,0,0,1-1.9,7.52,9.7,9.7,0,0,1-3,3,18.08,18.08,0,0,1-3.71,1.6c.27,0,1.46.1,1.8.15.67.1,1.48.17,2.15.29a14.59,14.59,0,0,1,2.17.42c1.8.62,3.32,2.55,4.26,4.4a20.73,20.73,0,0,1,1.43,3.23l1,3s-.08-2.17-.09-3.15c0-6.58,3-10.41,9.16-11.75C626.1,312.37,624.12,312.43,622.28,312Z"/><path d="M685.88,240.62a6.18,6.18,0,0,1-1.83-1.26,10.21,10.21,0,0,1-1.63-2.66,11.52,11.52,0,0,1-.83-2.92c-.07-.42-.25-1.46-.35-1.94,0-.25-.08-1.17-.12-1.4-.14.56-.26,2-.37,2.57a12.16,12.16,0,0,1-2.67,5.9,8,8,0,0,1-2.88,2,16,16,0,0,1-3.3.78c.23,0,1.19.29,1.46.38.54.19,1.2.36,1.73.56a11,11,0,0,1,1.73.67,7.33,7.33,0,0,1,2.86,4.24,18.8,18.8,0,0,1,.71,2.87c.05.4.34,2.58.34,2.58s.25-1.8.4-2.6c1-5.42,4-8.14,9.26-8.33C689,241.52,687.32,241.28,685.88,240.62Z"/><path d="M840.7,464a11.71,11.71,0,0,1-3.39-2.68,19.8,19.8,0,0,1-2.82-5.4,21.57,21.57,0,0,1-1.23-5.79c-.08-.82-.31-2.86-.42-3.81-.06-.5,0-2.28-.06-2.75-.35,1.08-.77,3.84-1,5-1.08,4.17-3.05,8.33-6,11.14a15.89,15.89,0,0,1-5.88,3.53,29.12,29.12,0,0,1-6.51,1.07c.44.1,2.28.73,2.79,1,1,.42,2.28.84,3.29,1.3a24.25,24.25,0,0,1,3.27,1.53c2.6,1.68,4.24,5.33,5,8.64a35.84,35.84,0,0,1,1,5.66c0,.8.33,5.07.33,5.07s.73-3.46,1.11-5c2.57-10.42,8.78-15.32,19.12-15C846.57,466.19,843.41,465.51,840.7,464Z"/><path d="M91.07,74.59a38.74,38.74,0,0,0-4.65.37c-11.06,1.09-20.1,16.68-20.1,38.2,0,.88,0,1.74.05,2.61h-1.3c0-.87.05-1.73.05-2.61,0-21.52-9-37.11-20.1-38.2a38.74,38.74,0,0,0-4.65-.37c-.21,0-.21-1,0-1A20.62,20.62,0,0,0,45,73.31c11-2,20.1-16.78,20.1-38.29,0-.53,0-1.08,0-1.6h1.24c0,.52,0,1.07,0,1.6,0,21.51,9.14,36.33,20.1,38.29a20.62,20.62,0,0,0,4.65.33C91.28,73.64,91.28,74.59,91.07,74.59Z"/><path d="M963.47,74.16a40.94,40.94,0,0,0-4.65.37c-11.06,1.09-20.1,16.68-20.1,38.2,0,.88,0,1.75,0,2.61h-1.3c0-.86,0-1.73,0-2.61,0-21.52-9-37.11-20.1-38.2a40.94,40.94,0,0,0-4.65-.37c-.21,0-.21-.94,0-.94a19.84,19.84,0,0,0,4.65-.34c11-2,20.1-16.78,20.1-38.29,0-.53,0-1.08,0-1.6h1.24c0,.52,0,1.07,0,1.6,0,21.51,9.14,36.33,20.1,38.29a19.84,19.84,0,0,0,4.65.34C963.68,73.22,963.68,74.16,963.47,74.16Z"/><path d="M154.91,902.94a15,15,0,0,0-3.59.27c-3.51.61-6.77,2.95-9.38,6.64-3.73,5.23-6.16,13.2-6.16,22.94,0,.41,0,.83,0,1.24h-1c0-.41,0-.83,0-1.24,0-16.62-7.07-28.08-15.53-29.58a15.16,15.16,0,0,0-3.6-.27c-.16,0-.16-.72,0-.72a32.3,32.3,0,0,0,3.6-.29,12.57,12.57,0,0,0,8.19-4.75c4.4-5.12,7.34-14,7.34-24.77,0-.68,0-1.35,0-2h1c0,.67,0,1.34,0,2,0,16.63,7,28.68,15.54,29.52a31.89,31.89,0,0,0,3.59.29C155.07,902.22,155.07,902.94,154.91,902.94Z"/><path d="M163.83,309a17.1,17.1,0,0,0-4,.29c-3.87.68-7.46,3.25-10.34,7.32-4.1,5.77-6.77,14.54-6.77,25.27,0,.46,0,.92,0,1.37h-1.05c0-.45,0-.91,0-1.37,0-18.3-7.78-30.93-17.1-32.59a17.27,17.27,0,0,0-4-.29c-.18,0-.18-.8,0-.8a35.68,35.68,0,0,0,4-.31c3.3-.32,6.4-2.17,9-5.24,4.85-5.63,8.08-15.39,8.08-27.28,0-.75,0-1.49,0-2.23h1.11c0,.74,0,1.48,0,2.23,0,7,7.69,31.59,17.11,32.52a35.27,35.27,0,0,0,4,.31C164,308.17,164,309,163.83,309Z"/><path d="M974.35,932.34h-.7c-1.6,0-2.86.25-3.95.36-7.42.73-13.93,8-17.41,19.19a64.32,64.32,0,0,0-2.69,19c0,.25,0,.5,0,.75,0,.63,0,1.25,0,1.86h-1.3c0-.61,0-1.23,0-1.86,0-.25,0-.5,0-.75,0-1.85-.07-3.65-.2-5.4v-.11c-1.4-18.63-9.81-31.7-19.9-32.69a40.94,40.94,0,0,0-4.65-.37c-.21,0-.21-.94,0-.94a20.42,20.42,0,0,0,4.65-.34c11-2,20.1-16.78,20.1-38.29,0-.53,0-1.08,0-1.6h1.24c0,.52,0,1.07,0,1.6,0,21.51,9.14,36.33,20.1,38.29a18,18,0,0,0,3.95.33h.7C974.56,931.4,974.56,932.34,974.35,932.34Z"/><path d="M641,510a9.9,9.9,0,0,1-2.64-2.53,16.73,16.73,0,0,1-2-4.76,18.17,18.17,0,0,1-.58-5c0-.7,0-2.43-.06-3.23,0-.43.18-1.92.17-2.32-.38.88-.95,3.17-1.27,4.08a20.26,20.26,0,0,1-5.89,8.9,13.4,13.4,0,0,1-5.22,2.5,25.4,25.4,0,0,1-5.56.4,24.43,24.43,0,0,1,2.27,1c.83.44,1.86.89,2.67,1.35a21,21,0,0,1,2.63,1.54c2.05,1.62,3.15,4.82,3.53,7.65a28.09,28.09,0,0,1,.39,4.85c0,.67-.11,4.29-.11,4.29s.88-2.86,1.33-4.14c3-8.55,8.57-12.18,17.23-11.09C645.75,512.28,643.16,511.46,641,510Z"/><path d="M495.54,615.91a9,9,0,0,1-2.42-2.32,15.45,15.45,0,0,1-1.79-4.36,16.82,16.82,0,0,1-.53-4.55c0-.64,0-2.23-.05-3,0-.39.16-1.76.15-2.12-.35.8-.87,2.9-1.17,3.74a18.6,18.6,0,0,1-5.4,8.16,12.19,12.19,0,0,1-4.79,2.29,22.38,22.38,0,0,1-5.09.36c.33.11,1.7.73,2.08.93.76.4,1.7.82,2.44,1.25a18.66,18.66,0,0,1,2.41,1.4c1.89,1.49,2.89,4.42,3.24,7a26.45,26.45,0,0,1,.36,4.45c0,.61-.11,3.93-.11,3.93s.81-2.62,1.22-3.79c2.73-7.85,7.87-11.17,15.81-10.17C499.9,618,497.52,617.25,495.54,615.91Z"/><path d="M359.54,725.72a11.6,11.6,0,0,1-3-3.12,19.77,19.77,0,0,1-2.07-5.73A21.47,21.47,0,0,1,354,711c0-.83.07-2.87.09-3.83,0-.51.3-2.26.31-2.73-.49,1-1.28,3.7-1.71,4.76a23.83,23.83,0,0,1-7.41,10.24,15.73,15.73,0,0,1-6.3,2.7,29.81,29.81,0,0,1-6.6.19c.43.15,2.16,1,2.64,1.31.95.56,2.15,1.15,3.09,1.74a24.37,24.37,0,0,1,3,1.95c2.35,2,3.48,5.85,3.8,9.23a34.49,34.49,0,0,1,.22,5.75c-.06.8-.35,5.07-.35,5.07s1.19-3.33,1.78-4.82c3.94-10,10.75-14,20.95-12.27C365.06,728.66,362,727.55,359.54,725.72Z"/><path d="M279.61,819.77a9.84,9.84,0,0,1-2.54-2.71,17.37,17.37,0,0,1-1.76-5A19,19,0,0,1,275,807c0-.72.06-2.49.07-3.33,0-.44.26-2,.27-2.36-.42.88-1.08,3.21-1.45,4.13a20.8,20.8,0,0,1-6.28,8.89,13.33,13.33,0,0,1-5.34,2.35,24.35,24.35,0,0,1-5.59.16,23.71,23.71,0,0,1,2.24,1.14c.81.48,1.82,1,2.62,1.51a20.59,20.59,0,0,1,2.56,1.69c2,1.75,3,5.09,3.22,8a30.77,30.77,0,0,1,.19,5c0,.69-.3,4.41-.3,4.41s1-2.9,1.51-4.19c3.34-8.67,9.11-12.15,17.75-10.66C284.29,822.32,281.72,821.36,279.61,819.77Z"/><path d="M329,534.35a10,10,0,0,1-2.54-2.71,17.66,17.66,0,0,1-1.75-5,19.45,19.45,0,0,1-.37-5.13c0-.72.06-2.49.08-3.33,0-.44.26-2,.26-2.37-.41.89-1.08,3.22-1.45,4.14a20.63,20.63,0,0,1-6.28,8.89,13.29,13.29,0,0,1-5.33,2.35,24.38,24.38,0,0,1-5.59.16,23.59,23.59,0,0,1,2.23,1.14c.81.48,1.82,1,2.62,1.51a21.47,21.47,0,0,1,2.57,1.69c2,1.75,3,5.09,3.22,8a30.77,30.77,0,0,1,.19,5c-.05.69-.3,4.41-.3,4.41s1-2.9,1.5-4.19c3.34-8.67,9.11-12.15,17.75-10.66C333.69,536.9,331.12,535.94,329,534.35Z"/><path d="M523.13,800.28a9.87,9.87,0,0,1-2.73-2.52,17.59,17.59,0,0,1-2.11-4.84,19,19,0,0,1-.73-5.08c0-.72-.12-2.49-.17-3.33,0-.43.12-2,.1-2.38-.35.91-.85,3.28-1.15,4.23a20.67,20.67,0,0,1-5.63,9.32,13.17,13.17,0,0,1-5.15,2.72A24.36,24.36,0,0,1,500,799c.37.1,1.89.76,2.31,1,.84.43,1.89.87,2.72,1.32a21.33,21.33,0,0,1,2.68,1.5c2.11,1.61,3.31,4.86,3.79,7.77a30.61,30.61,0,0,1,.55,5c0,.69,0,4.41,0,4.41s.79-3,1.19-4.29c2.71-8.88,8.22-12.77,16.94-11.9C528,802.49,525.35,801.72,523.13,800.28Z"/><path d="M788.87,354.82a10,10,0,0,1-2.54-2.71,17.66,17.66,0,0,1-1.75-5,18.64,18.64,0,0,1-.37-5.13c0-.72.06-2.49.07-3.32,0-.44.26-2,.27-2.37-.42.88-1.08,3.21-1.45,4.13a20.63,20.63,0,0,1-6.28,8.89,13.29,13.29,0,0,1-5.33,2.35,24.38,24.38,0,0,1-5.59.16c.36.13,1.83.9,2.23,1.14.81.48,1.82,1,2.62,1.51a20.59,20.59,0,0,1,2.56,1.69c2,1.75,3,5.09,3.23,8a32,32,0,0,1,.18,5c-.05.69-.29,4.41-.29,4.41s1-2.9,1.5-4.19c3.34-8.67,9.11-12.15,17.75-10.66C793.55,357.37,791,356.41,788.87,354.82Z"/><line class="cls-1" x1="184.55" y1="955.84" x2="597.97" y2="955.84"/></svg>