<svg xmlns="http://www.w3.org/2000/svg" viewBox="0 0 51.01 82.36"><defs><style>.cls-1{fill:#fff;}</style></defs><g id="Layer_2" data-name="Layer 2"><g id="Layer_1-2" data-name="Layer 1"><path class="cls-1" d="M50.86,42.13a19.84,19.84,0,0,0-4.65.34c-4.54.8-8.76,3.82-12.14,8.6-4.82,6.77-8,17.08-8,29.68,0,.54,0,1.08,0,1.61H24.89c0-.53,0-1.07,0-1.61,0-21.5-9.14-36.33-20.1-38.28a19.84,19.84,0,0,0-4.65-.34c-.21,0-.21-.94,0-.94a40.94,40.94,0,0,0,4.65-.37c3.88-.38,7.52-2.55,10.6-6.15,5.7-6.62,9.5-18.09,9.5-32.05,0-.88,0-1.75-.05-2.62h1.3c0,.87-.05,1.74-.05,2.62,0,21.52,9,37.11,20.1,38.2a40.94,40.94,0,0,0,4.65.37C51.07,41.19,51.07,42.13,50.86,42.13Z"/></g></g></svg>