<svg width="82" height="82" viewBox="0 0 82 82" fill="none" xmlns="http://www.w3.org/2000/svg">
<path d="M46.5053 26.6417L46.6613 27.3323L47.26 26.9543L68.3867 13.6133L55.0457 34.74L54.6677 35.3387L55.3583 35.4947L79.7307 41L55.3583 46.5053L54.6677 46.6613L55.0457 47.26L68.3867 68.3867L47.26 55.0457L46.6613 54.6677L46.5053 55.3583L41 79.7307L35.4947 55.3583L35.3387 54.6677L34.74 55.0457L13.6133 68.3867L26.9543 47.26L27.3323 46.6613L26.6417 46.5053L2.26929 41L26.6417 35.4947L27.3323 35.3387L26.9543 34.74L13.6133 13.6133L34.74 26.9543L35.3387 27.3323L35.4947 26.6417L41 2.26929L46.5053 26.6417Z" stroke="white"/>
</svg>
