<svg id="fcdbb05d-ea76-4932-b3e3-f6579e08128c" data-name="Layer 1" xmlns="http://www.w3.org/2000/svg" viewBox="0 0 1000 1000"><defs><style>.f42a12a2-eb2f-441a-9a0c-2398ea8ee4cd{fill:none;stroke:#231f20;stroke-miterlimit:10;stroke-width:3px;}.aa0693a1-dded-406c-9a01-0bbb88ceae7e{fill:#fff;}</style></defs><path class="f42a12a2-eb2f-441a-9a0c-2398ea8ee4cd" d="M58,675.78V318.06C58,174.42,174.42,58,318.06,58H681.94A259,259,0,0,1,802.88,87.75"/><path class="f42a12a2-eb2f-441a-9a0c-2398ea8ee4cd" d="M941.88,309.47q.14,4.27.14,8.59V681.94c0,141.77-113.43,257-254.5,260q-2.78.06-5.58.06H318.06A260.13,260.13,0,0,1,63.77,736.73"/><path class="f42a12a2-eb2f-441a-9a0c-2398ea8ee4cd" d="M898.09,173.38a258.52,258.52,0,0,1,34.52,75.14"/><path class="f42a12a2-eb2f-441a-9a0c-2398ea8ee4cd" d="M663.26,58c129.55,0,234.58,145.35,234.58,277.54"/><path class="f42a12a2-eb2f-441a-9a0c-2398ea8ee4cd" d="M168.55,766.4C138.07,727.88,127,677.69,126,622.49v-5.23l.6-303.46c0-87.12,48.83-153.16,130.83-192.6"/><path class="f42a12a2-eb2f-441a-9a0c-2398ea8ee4cd" d="M688.61,900.83q-10,1.11-20.32,1.33c-1.67,0-3.34.05-5,.05H335.06l-5.63-.05C260.31,900.74,205,868.9,168.55,819"/><path class="f42a12a2-eb2f-441a-9a0c-2398ea8ee4cd" d="M897.71,327.62c.08,2.62.13,5.25.13,7.9V670.41c0,107.6-49.61,231.8-145.38,261.93"/><path class="f42a12a2-eb2f-441a-9a0c-2398ea8ee4cd" d="M862.72,131.09q-8.93-8.62-18.66-16.4"/><path class="f42a12a2-eb2f-441a-9a0c-2398ea8ee4cd" d="M167.7,304.26C174.88,167,288.42,58,427.43,58A260.09,260.09,0,0,1,687.52,318.06v388.2"/><path class="f42a12a2-eb2f-441a-9a0c-2398ea8ee4cd" d="M167.7,304.26c0-143.62,180.48-287.34,259.73-208.09,102.62,102.62,158.29,81.31,183.91,76.18,58.43-11.71,80,110.33,76.18,183.9"/><path class="f42a12a2-eb2f-441a-9a0c-2398ea8ee4cd" d="M687.52,767.21V942H307.33a140,140,0,0,1-140-140V365.22"/><path class="f42a12a2-eb2f-441a-9a0c-2398ea8ee4cd" d="M473.75,58c127.75,0,234,92.11,255.93,213.54h.51c139.84-8.21,121.26,112,121.26,273.72V708.38c0,107.6-38.5,201.14-134.27,231.27"/><path class="f42a12a2-eb2f-441a-9a0c-2398ea8ee4cd" d="M686.59,942c26.09,0,47.25-108.37,47.25-141.67V389.65"/><path class="f42a12a2-eb2f-441a-9a0c-2398ea8ee4cd" d="M728.24,263.31C703.09,146,598.78,58,473.93,58"/><rect class="f42a12a2-eb2f-441a-9a0c-2398ea8ee4cd" x="168.55" y="235.5" width="517.76" height="547.58" rx="258.88"/><path class="aa0693a1-dded-406c-9a01-0bbb88ceae7e" d="M879.51,122.15a19.84,19.84,0,0,0-4.65.34c-4.54.8-8.76,3.82-12.14,8.6-4.82,6.77-8,17.08-8,29.68,0,.54,0,1.08,0,1.61h-1.24c0-.53,0-1.07,0-1.61,0-21.5-9.14-36.33-20.1-38.28a19.84,19.84,0,0,0-4.65-.34c-.21,0-.21-.94,0-.94a40.94,40.94,0,0,0,4.65-.37c3.88-.38,7.52-2.55,10.6-6.15,5.7-6.62,9.5-18.09,9.5-32,0-.88,0-1.75,0-2.62h1.3c0,.87,0,1.74,0,2.62,0,21.52,9,37.11,20.1,38.2a40.94,40.94,0,0,0,4.65.37C879.72,121.21,879.72,122.15,879.51,122.15Z"/><path d="M78.15,931.59a40.94,40.94,0,0,1-4.65-.37c-11.06-1.09-20.1-16.68-20.1-38.2,0-.88,0-1.75.05-2.62h-1.3c0,.87.05,1.74.05,2.62,0,21.52-9,37.11-20.1,38.2a40.94,40.94,0,0,1-4.65.37c-.21,0-.21.94,0,.94a19.84,19.84,0,0,1,4.65.34c11,2,20.1,16.78,20.1,38.28,0,.54,0,1.08,0,1.61h1.24c0-.53,0-1.07,0-1.61,0-21.5,9.14-36.33,20.1-38.28a19.84,19.84,0,0,1,4.65-.34C78.36,932.53,78.36,931.59,78.15,931.59Z"/><path d="M77,73.58a40.94,40.94,0,0,0-4.65.37c-11.06,1.09-20.1,16.68-20.1,38.2,0,.88,0,1.74,0,2.61H51c0-.87,0-1.73,0-2.61C51.08,90.63,42,75,31,74a40.94,40.94,0,0,0-4.65-.37c-.21,0-.21-1,0-1A20.62,20.62,0,0,0,31,72.3c11-2,20.1-16.78,20.1-38.29,0-.53,0-1.08,0-1.6H52.3c0,.52,0,1.07,0,1.6,0,21.51,9.14,36.33,20.1,38.29a20.62,20.62,0,0,0,4.65.33C77.24,72.63,77.24,73.58,77,73.58Z"/><path d="M879.51,122.15a19.84,19.84,0,0,0-4.65.34c-4.54.8-8.76,3.82-12.14,8.6-4.82,6.77-8,17.08-8,29.68,0,.54,0,1.08,0,1.61h-1.24c0-.53,0-1.07,0-1.61,0-21.5-9.14-36.33-20.1-38.28a19.84,19.84,0,0,0-4.65-.34c-.21,0-.21-.94,0-.94a40.94,40.94,0,0,0,4.65-.37c3.88-.38,7.52-2.55,10.6-6.15,5.7-6.62,9.5-18.09,9.5-32,0-.88,0-1.75,0-2.62h1.3c0,.87,0,1.74,0,2.62,0,21.52,9,37.11,20.1,38.2a40.94,40.94,0,0,0,4.65.37C879.72,121.21,879.72,122.15,879.51,122.15Z"/><path d="M758.83,331.53a19.84,19.84,0,0,0-4.65.34c-4.54.8-8.76,3.82-12.14,8.6-4.82,6.77-8,17.08-8,29.68,0,.54,0,1.08,0,1.61h-1.24c0-.53,0-1.07,0-1.61,0-21.5-9.14-36.33-20.1-38.28a19.84,19.84,0,0,0-4.65-.34c-.21,0-.21-.94,0-.94a40.94,40.94,0,0,0,4.65-.37c3.88-.38,7.52-2.55,10.6-6.15,5.7-6.62,9.5-18.09,9.5-32.05,0-.88,0-1.75,0-2.62h1.3c0,.87,0,1.74,0,2.62,0,8.19,9,37.11,20.1,38.2a40.94,40.94,0,0,0,4.65.37C759,330.59,759,331.53,758.83,331.53Z"/><path d="M976.66,932.34H976c-1.6,0-2.86.25-4,.36-7.42.73-13.93,8-17.41,19.19a64.32,64.32,0,0,0-2.69,19c0,.25,0,.5,0,.75,0,.63,0,1.25,0,1.86h-1.3c0-.61,0-1.23,0-1.86,0-.25,0-.5,0-.75,0-1.85-.07-3.65-.2-5.4v-.11c-1.4-18.63-9.81-31.7-19.9-32.69a40.94,40.94,0,0,0-4.65-.37c-.21,0-.21-.94,0-.94a20.42,20.42,0,0,0,4.65-.34c11-2,20.1-16.78,20.1-38.29,0-.53,0-1.08,0-1.6h1.24c0,.52,0,1.07,0,1.6,0,21.51,9.14,36.33,20.1,38.29a18,18,0,0,0,4,.33h.7C976.87,931.4,976.87,932.34,976.66,932.34Z"/><path d="M925.7,71.85a11.72,11.72,0,0,1-3.6-2.39,19.7,19.7,0,0,1-3.28-5.14,21.33,21.33,0,0,1-1.71-5.66c-.16-.81-.56-2.82-.76-3.76-.1-.5-.19-2.27-.28-2.73-.26,1.1-.44,3.89-.63,5-.72,4.24-2.32,8.56-5,11.61a15.65,15.65,0,0,1-5.55,4,28.93,28.93,0,0,1-6.4,1.63c.45.06,2.34.53,2.86.7,1.06.34,2.35.65,3.4,1a26.38,26.38,0,0,1,3.38,1.24c2.74,1.46,4.68,4.95,5.73,8.18a34.5,34.5,0,0,1,1.47,5.56l.77,5s.43-3.52.68-5.1c1.66-10.6,7.43-16,17.76-16.55C931.73,73.5,928.53,73.09,925.7,71.85Z"/><path d="M176.53,332.42a11.59,11.59,0,0,1-3.61-2.39,19.67,19.67,0,0,1-3.27-5.14,21.49,21.49,0,0,1-1.72-5.66c-.15-.81-.55-2.82-.75-3.76-.1-.49-.2-2.27-.29-2.73-.26,1.1-.44,3.89-.63,5-.71,4.24-2.32,8.56-5,11.61a15.8,15.8,0,0,1-5.55,4,30.07,30.07,0,0,1-6.4,1.63c.45.05,2.33.53,2.86.69,1.06.34,2.35.66,3.39,1A23.36,23.36,0,0,1,159,338c2.74,1.45,4.68,4.95,5.73,8.17a35.4,35.4,0,0,1,1.47,5.57l.77,5s.43-3.51.68-5.1c1.66-10.59,7.43-16,17.76-16.55C182.56,334.07,179.36,333.66,176.53,332.42Z"/><path d="M695.5,734.41a11.59,11.59,0,0,1-3.61-2.39,20.07,20.07,0,0,1-3.28-5.13,22,22,0,0,1-1.71-5.67c-.16-.81-.56-2.82-.75-3.75-.1-.5-.2-2.28-.29-2.74-.26,1.1-.44,3.89-.63,5a23.9,23.9,0,0,1-5,11.62,15.9,15.9,0,0,1-5.56,4,30,30,0,0,1-6.39,1.63c.45,0,2.33.53,2.86.7,1.05.33,2.34.65,3.39,1a24.59,24.59,0,0,1,3.39,1.24c2.73,1.45,4.68,4.95,5.73,8.18a35,35,0,0,1,1.47,5.56l.77,5s.43-3.51.67-5.09c1.67-10.6,7.44-16,17.77-16.56C701.53,736.07,698.33,735.65,695.5,734.41Z"/><path d="M947.76,275.58a11.57,11.57,0,0,1-3.86-1.93A20,20,0,0,1,940,269a21.64,21.64,0,0,1-2.39-5.42c-.25-.79-.89-2.73-1.2-3.64-.16-.48-.47-2.23-.62-2.67-.12,1.12,0,3.91,0,5.06a23.9,23.9,0,0,1-3.55,12.13,15.78,15.78,0,0,1-5,4.65,29.82,29.82,0,0,1-6.15,2.4,29.14,29.14,0,0,1,2.92.34c1.09.21,2.41.36,3.5.61a22.49,22.49,0,0,1,3.5.82c2.9,1.11,5.25,4.34,6.68,7.42a34.2,34.2,0,0,1,2.14,5.34c.21.77,1.37,4.9,1.37,4.9s0-3.54.06-5.14c.36-10.73,5.43-16.79,15.62-18.59C954,276.49,950.72,276.47,947.76,275.58Z"/><path d="M70.77,703.65a11.74,11.74,0,0,1-3.81-2,19.85,19.85,0,0,1-3.75-4.8A21.63,21.63,0,0,1,61,691.33c-.23-.8-.81-2.76-1.1-3.67-.15-.49-.41-2.25-.54-2.7-.16,1.12-.07,3.92-.16,5.06-.31,4.29-1.5,8.74-3.88,12a15.61,15.61,0,0,1-5.15,4.52,29.9,29.9,0,0,1-6.21,2.22c.45,0,2.37.31,2.91.43,1.08.24,2.4.43,3.48.7a24.74,24.74,0,0,1,3.48.91c2.86,1.19,5.13,4.49,6.48,7.61a36.35,36.35,0,0,1,2,5.4l1.23,4.92s.1-3.53.2-5.13c.66-10.71,5.89-16.64,16.12-18.15C76.93,704.73,73.71,704.62,70.77,703.65Z"/><path d="M85,866.12A11.67,11.67,0,0,1,81.17,864a19.84,19.84,0,0,1-3.7-4.84,21.77,21.77,0,0,1-2.18-5.5c-.22-.8-.79-2.77-1.06-3.69-.15-.48-.39-2.25-.52-2.69-.17,1.11-.11,3.91-.21,5a23.81,23.81,0,0,1-4,12,15.78,15.78,0,0,1-5.2,4.46A28.84,28.84,0,0,1,58.06,871c.45,0,2.37.34,2.91.46,1.08.25,2.39.45,3.47.73a26.2,26.2,0,0,1,3.47,1c2.85,1.22,5.08,4.55,6.4,7.68a34.48,34.48,0,0,1,1.93,5.41c.18.78,1.19,4.95,1.19,4.95s.13-3.54.25-5.14c.77-10.7,6.06-16.57,16.31-18C91.11,867.26,87.88,867.12,85,866.12Z"/><path d="M922.38,867.71A11.58,11.58,0,0,1,919,865a20.1,20.1,0,0,1-2.83-5.4,21.79,21.79,0,0,1-1.22-5.78c-.08-.83-.31-2.86-.43-3.81-.06-.51,0-2.29,0-2.75-.35,1.07-.77,3.84-1.06,5-1.07,4.16-3,8.33-6,11.14a15.75,15.75,0,0,1-5.87,3.52,29.82,29.82,0,0,1-6.51,1.08c.44.09,2.27.73,2.79.94,1,.43,2.28.85,3.29,1.31a25.47,25.47,0,0,1,3.27,1.52c2.6,1.69,4.24,5.34,5,8.64a35.06,35.06,0,0,1,1,5.67c.05.79.33,5.07.33,5.07s.73-3.46,1.11-5c2.57-10.42,8.78-15.31,19.12-15C928.25,869.87,925.09,869.19,922.38,867.71Z"/></svg>