<svg id="Layer_1" data-name="Layer 1" xmlns="http://www.w3.org/2000/svg" viewBox="0 0 1000 1000"><path d="M196,356.52c8.56-34.45,35.47-49.18,65.3-60.77a24.59,24.59,0,0,1,3.07-1c9.77-2.35,16.57-6.48,21.87-16.73,11.63-22.45,43.72-24.38,59.94-4.84,3.44,4.15,6.59,4.88,11.49,4.56,13.16-.86,26.37-1.18,39.56-1.46a10.84,10.84,0,0,0,8.47-3.53c89.09-93,241.08-64.39,289.81,54.49a11.87,11.87,0,0,0,7.38,7.29,512.64,512.64,0,0,1,71.29,34.08,37.48,37.48,0,0,1,6.48,4.28c3.39,3.06,4.37,7,2.27,11.18-2.19,4.38-5.91,6.18-10.76,5.18a13.71,13.71,0,0,1-4.18-1.67c-55.53-32.6-115.71-53.11-178-68-65.89-15.73-132.65-24.52-200.51-23.82-9.52.1-19,.86-28.54,1.07-3.58.08-5.09,1-5.75,5C352,320.6,340.52,332.14,322.83,335c-16.13,2.57-30.61-5.4-39.55-22.07-1.24-2.31-2-3.22-4.83-2.34-16.18,5.09-31.82,11.27-45.18,22-19.52,15.73-23.07,34.54-10.44,56.26,10,17.18,24.7,29.94,40.38,41.67,16.15,12.08,33.54,22.15,51.48,31.3,4.17,2.13,8.44,4.09,13.95,6.75-2.46-3.9-4.23-6.48-5.77-9.19-9.26-16.29-5.91-32.87,9.06-44.31,9.81-7.49,21.2-11.57,33-14.43,31.27-7.56,63-7.48,94.88-5.78,14.7.79,29.32,2.42,43.88,4.54a36.45,36.45,0,0,1,6.36,1.21c5,1.67,7.33,5.41,6.56,10.53s-4.16,8.24-9.41,8a101.37,101.37,0,0,1-18-2.14c-5-1.15-6.29.74-7.35,5q-20.77,84-41.79,168c-.37,1.47-.74,2.93-1.16,4.39-1.86,6.4-6.45,9.69-11.77,8.43-5.8-1.38-8.65-6.51-7-13.14,3.79-15.53,7.7-31,11.56-46.56,10.2-40.88,20.32-81.79,30.72-122.62,1.25-4.9.47-6.41-4.63-6.6-21.65-.81-43.26-1.14-64.85,1.13-4.6.49-7.08,2.17-8.73,6.8q-28.36,80-57.17,159.9c-3.55,9.89-8,13.24-14.49,10.84-6-2.25-7.3-7.75-3.93-17.15l26-72.6c3.12-8.71,3.12-8.73-5.08-12.4-28.71-12.82-56.29-27.6-81.37-46.72-13.13-10-25.1-21.21-35.18-34.38-8.25-10.79-13.47-23-17.06-35.94Zm475.17-34.7q-37.08-70.35-115.43-83.18C503.6,230.21,451.78,253.29,431,276.91A932.31,932.31,0,0,1,671.14,321.82ZM299.62,297.56A18.34,18.34,0,0,0,317.51,316c10,.15,18.69-8.59,18.55-18.57a18.33,18.33,0,0,0-18.41-17.88A17.82,17.82,0,0,0,299.62,297.56Zm64.23,123.76c-7.82,2-14,4.75-19.56,8.87-7.92,5.89-9.14,12.34-3.87,20.74a74.12,74.12,0,0,0,5.55,7.13c2.17,2.69,3.67,3.16,5-.88C355,445.57,359.26,434.07,363.85,421.32Z"/><path d="M589.73,438.55c-4.05,30.69-8,60.48-11.9,90.26-.17,1.29-.19,2.6-.48,3.86-1.38,6-5.67,9.16-11.22,8.34-5.13-.76-8.51-4.83-7.89-10.8,1.27-12.25,3-24.46,4.58-36.68,2.39-18.44,4.73-36.89,7.31-55.3.56-4-.24-5.93-4.52-6.61a96,96,0,0,1-13.79-3.56c-5.6-1.78-8.26-6.36-7-11.41,1.27-5.25,5.66-8.56,11.26-7.21,48.35,11.61,95.48,26.29,136.16,56.38,8.56,6.34,16,13.94,21.08,23.5,8.15,15.31,5.47,30.06-7.63,41.46-2.71,2.36-5.71,4.38-9.85,7.52a411.63,411.63,0,0,0,45.54-5.14c24.36-4.23,48.21-10.12,70.07-22.27a79,79,0,0,0,16.74-12.18c13.93-13.47,16.9-29.1,8.84-46.72-5.87-12.85-15.27-23-25.35-32.56a59.61,59.61,0,0,1-5.58-5.42c-3.31-4.08-3.27-8.47.16-12.39s8.27-5.13,12.22-1.8c20.87,17.6,39,37.34,42.16,66.05,2,18.48-5.56,33.8-18.65,46.49-14.3,13.85-31.83,22.2-50.39,28.49C759.36,551.78,726,556.33,692.2,558c-14.22.68-14.23.56-14.67,14.55q-3.1,99-6.22,197.89c-.25,7.66-3.76,12-9.72,12.11-6.19.07-10-4.58-9.74-12.55q2.82-93.76,5.75-187.51c1.11-36.12,2.16-72.24,3.44-108.35.14-4.21-.94-6.59-4.81-8.63A370.48,370.48,0,0,0,589.73,438.55Zm90.2,42.62v42.36a38.88,38.88,0,0,0,11.2-5.92c8.07-6,9.3-12.21,4-20.71C691.63,491.15,686.91,486.46,679.93,481.17Z"/><path d="M401.82,375c-18.33.1-33.25-13.44-33.2-30.14,0-15.63,13.29-28,30.29-28.31,18-.31,33.38,13.51,33.52,30.05C432.56,362.68,419.38,374.91,401.82,375Zm-.46-19.51c6.69.1,11.52-3.51,11.56-8.62,0-5.52-6.16-10.57-13.23-10.77-6.33-.18-11.47,3.73-11.53,8.79C388.09,350.49,394.2,355.4,401.36,355.5Z"/><path d="M283.19,412.57c-18.21-.18-33-14.07-32.67-30.75.29-15.38,14.1-27.76,30.92-27.71,18.07.05,33,13.95,32.9,30.61C314.23,400.62,300.68,412.73,283.19,412.57Zm.43-19.51c6.65,0,11.36-3.8,11.18-9-.18-5.55-6.53-10.47-13.5-10.46-6.32,0-11.43,4.15-11.26,9.14C270.23,388.3,276.54,393.08,283.62,393.06Z"/><path d="M539.25,330.43c17.83.31,32.32,14.11,32.13,30.6-.19,15.68-14.22,28.14-31.36,27.84-18.12-.31-32.78-14.36-32.44-31.07C507.91,342.06,521.71,330.13,539.25,330.43Zm-.8,19.5c-6.58,0-11.44,3.75-11.35,8.85.1,5.54,6.45,10.56,13.39,10.59,6.39,0,11.44-4,11.36-9C551.76,354.8,545.57,350,538.45,349.93Z"/><path d="M674.79,426.91c-18.1,0-33.35-14-33.12-30.42.22-15.4,13.91-27.89,30.71-28,18-.15,33.34,13.76,33.34,30.26C705.73,414.65,692.28,426.9,674.79,426.91Zm.11-19.53c6.74,0,11.33-3.69,11.16-8.95-.17-5.53-6.59-10.5-13.5-10.46-6.23,0-11.51,4.3-11.32,9.15C661.46,402.65,667.78,407.4,674.9,407.38Z"/><path d="M770.87,505.21c-18.07-.09-33.31-14.12-33.12-30.49.18-15.66,14.26-28.24,31.31-28,18,.26,32.59,13.77,32.66,30.17C801.79,492.72,788.08,505.3,770.87,505.21Zm.09-19.58c6.62,0,11.37-3.85,11.19-9-.19-5.6-6.44-10.38-13.52-10.35-6.36,0-11.54,4.16-11.34,9.05C757.51,480.73,764.05,485.66,771,485.63Z"/><path d="M309.42,629.61c-.4,1.34-.89,3.44-1.61,5.45q-11.64,32.57-23.35,65.1c-2.73,7.56-7.69,10.43-13.63,8.11-5.41-2.12-7.19-7.55-4.61-14.76q12-33.48,24-66.92c1.9-5.31,5.51-8.46,11.28-7.41C306.55,620.09,309.26,623.57,309.42,629.61Z"/><path d="M711.58,609.53c.6.18,2.82.16,3.75,1.25,4.93,5.75,9,6.36,14.67.28,3.1-3.35,8.26-2.21,11.67,1.3s3.64,7.7,1.2,11.91a11.36,11.36,0,0,1-2.94,3.41c-3.36,2.49-2.73,4.36.05,7.09,5.37,5.28,5.76,11.24,1.64,15.32s-10,3.68-15.31-1.73c-2.69-2.74-4.2-3.1-7.07-.11-5.38,5.6-11,6-15.26,1.88s-4.13-10.13,1.45-15.22c3.85-3.5,2.42-5.4-.56-8-3.65-3.12-4.93-7.16-3-11.66C703.36,611.64,706.31,609.55,711.58,609.53Z"/></svg>