<svg id="Layer_1" data-name="Layer 1" xmlns="http://www.w3.org/2000/svg" viewBox="0 0 1000 1500"><defs><style>.cls-1,.cls-2{fill:none;}.cls-1,.cls-3{stroke:#000;}.cls-1,.cls-2,.cls-3{stroke-miterlimit:10;stroke-width:3px;}.cls-2{stroke:#231f20;}</style></defs><polyline class="cls-1" points="503.1 1154.41 498.87 1179.09 567.24 1179.09 621.63 863.69"/><polyline class="cls-1" points="632.76 799.14 645.6 724.7 672.5 566.5"/><polyline class="cls-1" points="602.5 576.5 566.94 782.3 514.28 1089.28"/><polyline class="cls-1" points="486.67 900.52 504.33 797.57 538.5 599.5"/><line class="cls-1" x1="475.87" y1="963.46" x2="438.88" y2="1179.09"/><polyline class="cls-1" points="381.24 1179.09 447.24 794.37 460.83 716"/><line class="cls-1" x1="480.5" y1="602.5" x2="471.23" y2="656"/><path class="cls-1" d="M469.19,667.72a.06.06,0,0,1,0,0"/><line class="cls-1" x1="393.26" y1="758.03" x2="393.26" y2="758.02"/><line class="cls-1" x1="423.5" y1="580.5" x2="350.01" y2="1010.12"/><line class="cls-1" x1="338.86" y1="1075.08" x2="321.02" y2="1179.09"/><line class="cls-1" x1="309.94" y1="888.79" x2="271.19" y2="1114.66"/><line class="cls-1" x1="366.5" y1="568.5" x2="321.1" y2="823.73"/><line class="cls-1" x1="262.41" y1="1165.87" x2="260.14" y2="1179.09"/><line class="cls-1" x1="318.5" y1="565.5" x2="215.06" y2="1167.76"/><polyline class="cls-1" points="887.3 1040.16 888.22 1179.09 568.65 1179.09"/><path class="cls-1" d="M211.36,441.54c-14.05,24.43-21.94,53.7-21.94,87.75V1022.9"/><path class="cls-2" d="M781.17,442.71c9.14,15.9,14.88,34.81,18.33,54.79"/><path class="cls-2" d="M567.24,1179.09H250.5A61.08,61.08,0,0,1,189.42,1118"/><path class="cls-2" d="M796.38,728.29V919a258.8,258.8,0,0,1-44.08,144.9"/><line class="cls-2" x1="798.98" y1="638.48" x2="798.98" y2="497.47"/><path class="cls-2" d="M531.21,1179.09a259.1,259.1,0,0,0,172.56-65.48"/><path class="cls-1" d="M192.31,497.33h-7.88"/><path class="cls-1" d="M779,442.91A172.55,172.55,0,0,1,945,615.34"/><line class="cls-1" x1="945.01" y1="1196.52" x2="945.01" y2="607.89"/><line class="cls-1" x1="904.31" y1="1274.33" x2="211.61" y2="1274.33"/><path class="cls-1" d="M211.29,441.38h0c-99.09,0-179.41,58.43-179.41,179.41v536.83c0,68.69,55.68,116.71,124.37,116.71H908.63"/><path class="cls-1" d="M87.23,833.4V618.48c0-66.91,35.27-121.16,102.19-121.16"/><polyline class="cls-1" points="87.23 899.43 87.23 1034.69 87.23 1255.82"/><line class="cls-1" x1="271.5" y1="557.5" x2="189.42" y2="1022.91"/><line class="cls-1" x1="650.76" y1="1012.37" x2="625.17" y2="1161.61"/><line class="cls-1" x1="729.5" y1="553.5" x2="661.93" y2="947.28"/><path class="cls-3" d="M685.15,492.33q-4.23,7.82-9.08,15.23c-37.65,57.62-101.89,95.57-174.79,95.57s-137-37.84-174.63-95.33a215.53,215.53,0,0,1-25.9-55.26q-1.65-5.4-3-10.93a218.2,218.2,0,0,1-6.2-42.25c-.17-3.57-.26-7.15-.26-10.76,0-1.39,0-2.77.05-4.15a217.35,217.35,0,0,1,16.29-78.95c3.92.31,8,.52,12.25.64h.49a204.67,204.67,0,0,0-15.68,75.7c0,.66,0,1.32,0,2v1.21q0,5.29.27,10.53a204.63,204.63,0,0,0,7.63,46.07c1.19,4.15,2.5,8.26,3.95,12.3q1.58,4.44,3.36,8.8a205.41,205.41,0,0,0,355,44.81Q680.34,500.19,685.15,492.33Z"/><path class="cls-1" d="M699.69,306.25c2.43,5.95,4.58,11.85,6.45,17.76.09.28.18.56.26.84a194.7,194.7,0,0,1,8.91,55c0,1.73.06,3.46.06,5.22,0,19.31-3.57,39-9.3,57.66a272.86,272.86,0,0,1-20.92,49.62,204.38,204.38,0,0,0,30.22-107.28c0-1.76,0-3.49-.06-5.22a204.9,204.9,0,0,0-8.91-55c-.08-.28-.17-.56-.26-.84q-2.82-9.09-6.45-17.79"/><path class="cls-3" d="M685.15,276.56a205.33,205.33,0,0,0-380.5,107.28v.61a204.67,204.67,0,0,0,15.7,78.29h-.49c-4.26.12-8.33.33-12.25.64a217,217,0,0,1-16.29-78.94c0-1.38-.05-2.77-.05-4.16,0-118.49,94-214.53,210-214.53C580.43,165.76,649.36,210.49,685.15,276.56Z"/><path class="cls-1" d="M699.69,462.67a205.72,205.72,0,0,0-14.54-186.11c16.66,30.74,30.22,69.65,30.22,107.28,0,29.18-5.35,53.45-15.68,78.8"/><ellipse class="cls-1" cx="498.19" cy="372.22" rx="264.66" ry="42.83" transform="translate(-30.54 44.82) rotate(-5)"/><path class="cls-1" d="M297.73,441.61q1.36,5.52,3,10.93l2.84.29q6.21.63,12.91,1.12a3.4,3.4,0,0,0,.45,0c48.43,3.6,115,2.63,188.06-3.76,85.18-7.45,160.35-20.61,207.66-35l.51-.15c33.26-10.15,52.6-20.88,51.75-30.61-.8-9.18-19.46-16.11-50.55-20.4h-.07c-48.71-6.73-127.92-7-216.77.8-76.61,6.7-145.13,18-192.56,30.69h-.06q-6.71,1.79-12.84,3.61h0l-.55.16c-34.58,10.33-54.78,21.31-53.91,31.25.36,4.08,4.23,7.71,11.15,10.87"/><line class="cls-1" x1="237.62" y1="430.61" x2="234.88" y2="392.34"/><line class="cls-1" x1="764.72" y1="385.72" x2="761.98" y2="347.45"/><path d="M737.69,1092.16a12,12,0,0,1-1.9-3.89,19.92,19.92,0,0,1-.22-6.09,21.74,21.74,0,0,1,1.39-5.75c.28-.78.95-2.71,1.26-3.62.16-.48,1-2.06,1.13-2.5-.78.81-2.34,3.13-3.08,4a23.91,23.91,0,0,1-10.19,7.48,15.66,15.66,0,0,1-6.82.64,29,29,0,0,1-6.34-1.83c.36.27,1.74,1.64,2.11,2.05.74.83,1.69,1.75,2.41,2.6a25.63,25.63,0,0,1,2.29,2.78c1.62,2.64,1.52,6.64.79,10a34.49,34.49,0,0,1-1.54,5.54l-1.89,4.72s2.15-2.81,3.17-4c6.8-8.29,14.51-10,23.7-5.27C742.05,1096.64,739.5,1094.66,737.69,1092.16Z"/><path d="M895.42,1004.61a11.62,11.62,0,0,1-3.66-2.3,20,20,0,0,1-3.39-5.07,21.3,21.3,0,0,1-1.84-5.62c-.17-.81-.62-2.81-.83-3.74-.12-.49-.25-2.27-.35-2.72-.24,1.1-.36,3.89-.52,5-.62,4.26-2.13,8.61-4.74,11.72a15.63,15.63,0,0,1-5.46,4.13,30,30,0,0,1-6.36,1.78,28.93,28.93,0,0,1,2.88.63c1.06.32,2.36.6,3.41.95a24,24,0,0,1,3.41,1.16c2.77,1.39,4.8,4.85,5.91,8.05a34,34,0,0,1,1.6,5.53c.14.78.88,5,.88,5s.35-3.52.57-5.11c1.42-10.63,7.07-16.16,17.38-16.94C901.48,1006.13,898.28,1005.79,895.42,1004.61Z"/><path d="M823.46,1135.87a11.55,11.55,0,0,1-3.65-2.31,19.66,19.66,0,0,1-3.39-5.06,21.54,21.54,0,0,1-1.84-5.62c-.18-.81-.62-2.81-.84-3.74-.11-.5-.24-2.27-.35-2.73-.23,1.11-.35,3.9-.51,5-.62,4.25-2.13,8.6-4.74,11.71a15.78,15.78,0,0,1-5.46,4.14,29.37,29.37,0,0,1-6.36,1.77c.45,0,2.34.48,2.88.64,1.06.31,2.36.6,3.41.94a23.27,23.27,0,0,1,3.41,1.17c2.77,1.39,4.79,4.84,5.91,8a35.21,35.21,0,0,1,1.6,5.52c.13.79.88,5,.88,5s.35-3.52.56-5.11c1.43-10.63,7.08-16.17,17.39-17C829.53,1137.39,826.32,1137.05,823.46,1135.87Z"/><path d="M96.48,864.46A11.76,11.76,0,0,1,93,861.94a19.88,19.88,0,0,1-3.08-5.26,21.53,21.53,0,0,1-1.5-5.72c-.13-.82-.45-2.84-.61-3.78-.08-.5-.11-2.29-.19-2.75-.3,1.09-.58,3.87-.81,5-.87,4.21-2.64,8.47-5.43,11.41a15.75,15.75,0,0,1-5.7,3.81A30.2,30.2,0,0,1,69.19,866c.45.07,2.31.62,2.83.8,1,.38,2.32.74,3.36,1.15a24,24,0,0,1,3.33,1.37c2.68,1.55,4.49,5.12,5.42,8.38a34.76,34.76,0,0,1,1.27,5.61c.08.8.58,5,.58,5s.56-3.49.86-5.06c2.06-10.53,8-15.72,18.37-15.88C102.44,866.34,99.26,865.81,96.48,864.46Z"/><path d="M198.69,1061.21a11.6,11.6,0,0,1-3.52-2.51,19.85,19.85,0,0,1-3.11-5.24,22,22,0,0,1-1.53-5.72c-.12-.82-.46-2.83-.62-3.78-.09-.5-.12-2.28-.2-2.74-.3,1.09-.57,3.87-.8,5-.85,4.21-2.6,8.48-5.37,11.44a15.86,15.86,0,0,1-5.68,3.83,29.65,29.65,0,0,1-6.45,1.41c.45.07,2.31.61,2.84.8,1,.37,2.32.72,3.35,1.13a23.57,23.57,0,0,1,3.34,1.35c2.69,1.54,4.52,5.1,5.46,8.36a34.82,34.82,0,0,1,1.29,5.61c.09.79.6,5,.6,5s.55-3.5.85-5.07c2-10.54,8-15.76,18.3-16C204.66,1063.06,201.48,1062.54,198.69,1061.21Z"/><path d="M666.12,979.11a11.93,11.93,0,0,1-3.17-2.94,19.91,19.91,0,0,1-2.4-5.6,21.65,21.65,0,0,1-.78-5.87c0-.83-.09-2.87-.13-3.83,0-.5.17-2.28.16-2.74-.44,1-1.07,3.76-1.44,4.85-1.39,4.07-3.67,8.07-6.8,10.65a15.67,15.67,0,0,1-6.13,3.06,29.29,29.29,0,0,1-6.58.58c.44.13,2.22.9,2.71,1.15,1,.51,2.21,1,3.19,1.56a24.84,24.84,0,0,1,3.13,1.77c2.47,1.88,3.82,5.64,4.34,9a35.29,35.29,0,0,1,.55,5.72c0,.8,0,5.08,0,5.08s1-3.39,1.49-4.91c3.36-10.19,9.92-14.6,20.2-13.47C671.81,981.71,668.72,980.79,666.12,979.11Z"/><path d="M259.75,424.79a5.15,5.15,0,0,1-1.41-1.51,14,14,0,0,1-1.24-3.17,17.9,17.9,0,0,1-.61-3.44c-.06-.5-.19-1.72-.26-2.28,0-.31,0-1.38-.07-1.66-.12.66-.23,2.34-.32,3a18.3,18.3,0,0,1-2.15,6.9,6.86,6.86,0,0,1-2.28,2.3,8.44,8.44,0,0,1-2.58.86,9.65,9.65,0,0,1,1.14.48c.42.22.93.44,1.34.68a7.91,7.91,0,0,1,1.34.82c1.07.93,1.81,3.07,2.18,5a30.91,30.91,0,0,1,.52,3.38c0,.48.24,3,.24,3s.22-2.1.34-3.05c.8-6.36,3.18-9.5,7.32-9.63C262.14,425.9,260.86,425.59,259.75,424.79Z"/><path d="M737.59,387c3.37-.43,5.81,2.35,7.51,8.51.25.92.77,3,.77,3s-.25-2.55-.3-3c-.12-1.14-.13-2.3-.14-3.41,0-2,.23-4.2,1-5.26a6.41,6.41,0,0,1,1-1c.29-.29.67-.57,1-.85a7.35,7.35,0,0,1,.84-.63,6.16,6.16,0,0,1-2.23-.49,6.55,6.55,0,0,1-2.21-2,20.92,20.92,0,0,1-2.87-6.51c-.19-.66-.55-2.3-.75-2.93,0,.27.18,1.33.2,1.64,0,.57.13,1.79.17,2.28a21.49,21.49,0,0,1,.07,3.48,15.93,15.93,0,0,1-.49,3.29,5.2,5.2,0,0,1-.89,1.68C739.36,385.73,738.38,386.21,737.59,387Z"/><path d="M343.51,367.48a6,6,0,0,1-2-.9,10,10,0,0,1-2.1-2.32,11.25,11.25,0,0,1-1.35-2.71c-.15-.4-.52-1.38-.7-1.84-.1-.24-.3-1.13-.38-1.36,0,.58.11,2,.11,2.6a12.31,12.31,0,0,1-1.53,6.3,8.08,8.08,0,0,1-2.47,2.5,14.64,14.64,0,0,1-3.09,1.37c.23,0,1.22.07,1.5.11.57.08,1.25.13,1.81.23a11.43,11.43,0,0,1,1.82.34,7.31,7.31,0,0,1,3.59,3.64,18.67,18.67,0,0,1,1.23,2.69c.12.39.81,2.47.81,2.47s-.08-1.81-.09-2.63c-.07-5.51,2.39-8.73,7.56-9.9C346.71,367.8,345.05,367.87,343.51,367.48Z"/><path d="M523.84,343.56A6,6,0,0,1,522,342.3a10.3,10.3,0,0,1-1.64-2.67,10.9,10.9,0,0,1-.82-2.92c-.08-.41-.26-1.45-.35-1.93-.05-.26-.08-1.17-.13-1.4-.14.56-.26,2-.37,2.57a12.28,12.28,0,0,1-2.66,5.9,8.08,8.08,0,0,1-2.89,2,15.69,15.69,0,0,1-3.3.78c.23,0,1.2.29,1.47.38.53.18,1.19.36,1.73.56a12,12,0,0,1,1.72.66,7.3,7.3,0,0,1,2.86,4.25,17.7,17.7,0,0,1,.71,2.87c0,.4.34,2.58.34,2.58s.26-1.8.4-2.61c.95-5.42,4-8.14,9.26-8.32C526.92,344.46,525.28,344.22,523.84,343.56Z"/><path d="M421.64,436.24a7.09,7.09,0,0,1-2.18-1.5,12.1,12.1,0,0,1-2-3.19,13.21,13.21,0,0,1-1-3.49c-.08-.5-.31-1.74-.41-2.31-.06-.31-.1-1.4-.15-1.68-.17.67-.31,2.38-.44,3.07a14.71,14.71,0,0,1-3.19,7.06,9.7,9.7,0,0,1-3.45,2.4,17.58,17.58,0,0,1-3.95.93c.28,0,1.43.35,1.75.46.64.22,1.43.43,2.07.67a15.6,15.6,0,0,1,2.06.79c1.67.93,2.82,3.09,3.43,5.08a22.3,22.3,0,0,1,.84,3.43c.06.49.41,3.09.41,3.09s.31-2.15.48-3.12c1.13-6.48,4.73-9.73,11.07-9.95C425.32,437.32,423.36,437,421.64,436.24Z"/><path d="M632.29,414.89a7.16,7.16,0,0,1-2.41-1.09,12,12,0,0,1-2.48-2.8,13.33,13.33,0,0,1-1.59-3.26c-.17-.48-.61-1.66-.82-2.2-.11-.3-.34-1.36-.44-1.63,0,.69.11,2.4.11,3.1a14.68,14.68,0,0,1-1.9,7.52,9.7,9.7,0,0,1-3,3,18.08,18.08,0,0,1-3.71,1.6c.28,0,1.46.1,1.8.15.67.1,1.48.17,2.15.29a14.59,14.59,0,0,1,2.17.42c1.8.62,3.32,2.55,4.26,4.4a21.09,21.09,0,0,1,1.44,3.22c.14.47,1,3,1,3s-.08-2.17-.09-3.15c0-6.58,3-10.41,9.16-11.75C636.11,415.31,634.13,415.37,632.29,414.89Z"/><path d="M681.89,340a6.2,6.2,0,0,1-1.82-1.26,10.3,10.3,0,0,1-1.64-2.67,11,11,0,0,1-.82-2.92c-.08-.42-.26-1.45-.35-1.93,0-.26-.08-1.17-.13-1.41-.14.57-.26,2-.37,2.57a12.19,12.19,0,0,1-2.67,5.91,8,8,0,0,1-2.88,2,15.69,15.69,0,0,1-3.3.78c.23,0,1.2.29,1.47.38.53.18,1.19.36,1.73.56a12,12,0,0,1,1.72.66,7.3,7.3,0,0,1,2.86,4.25,17.7,17.7,0,0,1,.71,2.87c.05.4.34,2.58.34,2.58s.26-1.8.4-2.61c1-5.42,4-8.14,9.26-8.32C685,340.87,683.33,340.63,681.89,340Z"/><path d="M87.08,393.08a40.94,40.94,0,0,0-4.65.37c-11.06,1.09-20.1,16.68-20.1,38.2,0,.88,0,1.75.05,2.62h-1.3c0-.87.05-1.74.05-2.62,0-21.52-9-37.11-20.1-38.2a40.94,40.94,0,0,0-4.65-.37c-.21,0-.21-.94,0-.94A19.84,19.84,0,0,0,41,391.8c11-1.95,20.1-16.78,20.1-38.29,0-.53,0-1.07,0-1.6h1.24c0,.53,0,1.07,0,1.6,0,21.51,9.14,36.34,20.1,38.29a19.84,19.84,0,0,0,4.65.34C87.29,392.14,87.29,393.08,87.08,393.08Z"/><path d="M959.49,392.66a41.27,41.27,0,0,0-4.65.36c-11.06,1.09-20.1,16.68-20.1,38.2,0,.88,0,1.75,0,2.62h-1.3c0-.87,0-1.74,0-2.62,0-21.52-9-37.11-20.1-38.2a41.27,41.27,0,0,0-4.65-.36c-.21,0-.21-1,0-1a20.62,20.62,0,0,0,4.65-.33c11-2,20.1-16.78,20.1-38.29,0-.54,0-1.08,0-1.6h1.24c0,.52,0,1.06,0,1.6,0,21.51,9.14,36.33,20.1,38.29a20.62,20.62,0,0,0,4.65.33C959.7,391.71,959.7,392.66,959.49,392.66Z"/><path d="M150.92,1221.44a15.23,15.23,0,0,0-3.59.26c-3.51.62-6.77,3-9.38,6.65-3.73,5.23-6.15,13.19-6.15,22.93,0,.42,0,.83,0,1.24h-1c0-.41,0-.82,0-1.24,0-16.61-7.06-28.07-15.53-29.58a15.28,15.28,0,0,0-3.6-.26c-.16,0-.16-.73,0-.73a32.65,32.65,0,0,0,3.6-.28,12.56,12.56,0,0,0,8.19-4.76c4.4-5.11,7.34-14,7.34-24.76,0-.68,0-1.35,0-2h1c0,.68,0,1.35,0,2,0,16.63,7,28.67,15.53,29.52a32.44,32.44,0,0,0,3.59.28C151.08,1220.71,151.08,1221.44,150.92,1221.44Z"/><path d="M159.85,627.47a16.58,16.58,0,0,0-4,.29c-3.87.68-7.46,3.25-10.34,7.32-4.1,5.76-6.77,14.54-6.77,25.26,0,.46,0,.92,0,1.37h-1.06c0-.45,0-.91,0-1.37,0-18.3-7.78-30.92-17.11-32.58a16.69,16.69,0,0,0-4-.29c-.18,0-.18-.8,0-.8a35.34,35.34,0,0,0,4-.32c3.3-.32,6.4-2.17,9-5.23,4.85-5.64,8.09-15.4,8.09-27.28,0-.75,0-1.49,0-2.23h1.11c0,.74,0,1.48,0,2.23,0,7,7.69,31.59,17.11,32.51a34.93,34.93,0,0,0,4,.32C160,626.67,160,627.47,159.85,627.47Z"/><path d="M970.36,1250.83h-.7c-1.6.05-2.86.25-3.95.36-7.42.73-13.93,8-17.41,19.19a64.32,64.32,0,0,0-2.69,19c0,.25,0,.5,0,.75,0,.63,0,1.25,0,1.86h-1.3c0-.61,0-1.23,0-1.86,0-.25,0-.5,0-.75,0-1.85-.07-3.65-.2-5.4v-.11c-1.4-18.63-9.81-31.7-19.9-32.69a40.94,40.94,0,0,0-4.65-.37c-.21,0-.21-.94,0-.94a20.42,20.42,0,0,0,4.65-.34c11-2,20.1-16.78,20.1-38.29,0-.53,0-1.08,0-1.6h1.24c0,.52,0,1.07,0,1.6,0,21.51,9.14,36.33,20.1,38.29a18,18,0,0,0,3.95.33h.7C970.57,1249.89,970.57,1250.83,970.36,1250.83Z"/><path d="M637,828.5a10,10,0,0,1-2.64-2.52,16.85,16.85,0,0,1-2-4.76,18.26,18.26,0,0,1-.58-5c0-.7,0-2.43-.06-3.24,0-.43.18-1.92.17-2.31-.38.87-.94,3.16-1.27,4.07a20.12,20.12,0,0,1-5.89,8.9,13.43,13.43,0,0,1-5.22,2.51,24.79,24.79,0,0,1-5.56.39c.37.11,1.86.79,2.28,1,.82.44,1.85.89,2.66,1.36a20.94,20.94,0,0,1,2.63,1.53c2.06,1.62,3.15,4.82,3.53,7.66a29,29,0,0,1,.4,4.84c0,.67-.12,4.29-.12,4.29s.88-2.86,1.33-4.13c3-8.56,8.57-12.19,17.24-11.1C641.76,830.78,639.17,830,637,828.5Z"/><path d="M491.55,934.4a8.84,8.84,0,0,1-2.42-2.31,15.52,15.52,0,0,1-1.79-4.37,16.78,16.78,0,0,1-.53-4.55c0-.64,0-2.23-.05-3,0-.39.16-1.76.15-2.12-.35.8-.87,2.9-1.17,3.74a18.37,18.37,0,0,1-5.4,8.16,12.38,12.38,0,0,1-4.78,2.3,23.72,23.72,0,0,1-5.1.36c.33.1,1.7.72,2.08.92.76.41,1.7.82,2.45,1.25a19.32,19.32,0,0,1,2.4,1.41c1.89,1.48,2.89,4.42,3.25,7a27.5,27.5,0,0,1,.35,4.44c0,.62-.1,3.93-.1,3.93s.81-2.61,1.21-3.79c2.73-7.84,7.87-11.17,15.82-10.17C495.92,936.49,493.53,935.74,491.55,934.4Z"/><path d="M355.55,1044.21a11.52,11.52,0,0,1-3-3.11,19.89,19.89,0,0,1-2.08-5.73,21.87,21.87,0,0,1-.43-5.9c0-.83.07-2.88.09-3.84,0-.5.3-2.26.31-2.72-.49,1-1.27,3.69-1.71,4.76a23.86,23.86,0,0,1-7.41,10.23,15.73,15.73,0,0,1-6.3,2.7,29.23,29.23,0,0,1-6.6.2c.43.15,2.16,1,2.64,1.3,1,.56,2.15,1.15,3.09,1.74a26.91,26.91,0,0,1,3,2c2.35,2,3.49,5.86,3.8,9.24a33.45,33.45,0,0,1,.22,5.75c-.06.79-.35,5.07-.35,5.07s1.19-3.34,1.78-4.83c3.94-10,10.75-14,20.95-12.26C361.07,1047.15,358,1046.05,355.55,1044.21Z"/><path d="M275.62,1138.27a10.14,10.14,0,0,1-2.54-2.71,17.72,17.72,0,0,1-1.75-5,18.6,18.6,0,0,1-.37-5.12c0-.72.06-2.5.07-3.33,0-.44.26-2,.27-2.37-.42.88-1.08,3.21-1.45,4.13a20.57,20.57,0,0,1-6.28,8.89,13,13,0,0,1-5.33,2.35,25,25,0,0,1-5.59.17c.36.13,1.83.89,2.23,1.13.81.49,1.82,1,2.62,1.51a19.6,19.6,0,0,1,2.56,1.7c2,1.75,3,5.08,3.23,8a32.12,32.12,0,0,1,.18,5c-.05.69-.29,4.4-.29,4.4s1-2.89,1.5-4.19c3.34-8.66,9.11-12.15,17.75-10.65C280.3,1140.81,277.73,1139.86,275.62,1138.27Z"/><path d="M325,852.84a10.06,10.06,0,0,1-2.53-2.7,17.43,17.43,0,0,1-1.76-5,19.41,19.41,0,0,1-.37-5.12c0-.72.07-2.5.08-3.33,0-.44.26-2,.27-2.37-.42.88-1.09,3.21-1.45,4.13a20.67,20.67,0,0,1-6.29,8.89,13,13,0,0,1-5.33,2.35,25,25,0,0,1-5.59.17c.36.13,1.83.89,2.24,1.13.81.49,1.82,1,2.61,1.51a21.47,21.47,0,0,1,2.57,1.69c2,1.76,2.95,5.09,3.22,8a30.94,30.94,0,0,1,.19,5c-.05.69-.3,4.4-.3,4.4s1-2.89,1.5-4.19c3.35-8.66,9.12-12.15,17.76-10.65C329.7,855.39,327.13,854.44,325,852.84Z"/><path d="M519.14,1118.77a10.13,10.13,0,0,1-2.73-2.51,17.72,17.72,0,0,1-2.11-4.84,19.14,19.14,0,0,1-.73-5.09c0-.71-.12-2.49-.16-3.32,0-.44.11-2,.09-2.38-.35.91-.85,3.28-1.15,4.22a20.65,20.65,0,0,1-5.62,9.32,13.23,13.23,0,0,1-5.16,2.73,24.93,24.93,0,0,1-5.56.56c.37.11,1.89.76,2.31,1,.85.42,1.89.86,2.72,1.31a20.21,20.21,0,0,1,2.68,1.51c2.12,1.6,3.31,4.86,3.79,7.77a30.49,30.49,0,0,1,.55,5c0,.69,0,4.42,0,4.42s.79-3,1.2-4.29c2.71-8.88,8.21-12.78,16.94-11.9C524,1121,521.36,1120.21,519.14,1118.77Z"/><path d="M474.88,682.32a10.14,10.14,0,0,1-2.54-2.71,17.61,17.61,0,0,1-1.75-5,19.41,19.41,0,0,1-.37-5.12c0-.72.06-2.5.08-3.33,0-.44.25-2,.26-2.37-.41.88-1.08,3.21-1.45,4.14a20.69,20.69,0,0,1-6.28,8.89,13.13,13.13,0,0,1-5.33,2.34,25,25,0,0,1-5.59.17c.36.13,1.83.89,2.23,1.13.81.49,1.82,1,2.62,1.51a20.4,20.4,0,0,1,2.57,1.7c2,1.75,2.95,5.08,3.22,8a30.77,30.77,0,0,1,.19,5c-.06.69-.3,4.4-.3,4.4s1-2.89,1.5-4.19c3.34-8.66,9.11-12.15,17.75-10.65C479.56,684.86,477,683.91,474.88,682.32Z"/><line class="cls-1" x1="180.56" y1="1274.33" x2="593.98" y2="1274.33"/><path class="cls-1" d="M614.78,572c11.42-.69,21.93-1.51,31.22-2.47,12.69-1.31,50.59-6.81,50.59-6.81a235.16,235.16,0,0,0,53.71-17.14c24.41-11,38.29-27.31,48.71-48.22l5.1.87c58,11.76,80.51,70.14,80.51,137.8l2.24,338.13"/><path class="cls-1" d="M192.11,497.19c10.42,20.92,24.3,37.2,48.71,48.23,19.85,9,37.64,14.5,53.71,17.14,24,3.94,61.47,6.94,61.47,6.94,9.29.87,19.8,1.63,31.21,2.29"/><path d="M805.76,678a11.54,11.54,0,0,1-3.38-2.68,19.84,19.84,0,0,1-2.83-5.4,21.18,21.18,0,0,1-1.22-5.79c-.09-.83-.32-2.86-.43-3.81-.06-.5,0-2.28,0-2.75-.36,1.08-.77,3.84-1.06,4.95a23.84,23.84,0,0,1-6,11.14,15.81,15.81,0,0,1-5.88,3.53,29.7,29.7,0,0,1-6.51,1.07c.44.1,2.28.73,2.79.94,1,.43,2.28.85,3.29,1.31a23.69,23.69,0,0,1,3.27,1.53c2.6,1.68,4.24,5.33,5,8.63a34,34,0,0,1,1,5.67c.05.8.34,5.07.34,5.07s.72-3.46,1.11-5c2.56-10.41,8.77-15.31,19.11-15C811.63,680.19,808.48,679.5,805.76,678Z"/><path class="cls-1" d="M345.35,507.79h-18.7c-7-1.25-14.12-2.24-14.12-2.24a235.66,235.66,0,0,1-53.71-17.14c-24.24-10.95-37.72-26.35-48.11-47h.58l37.48.1c10.67,4.86,28.58,8.59,52,11.06q-1.65-5.4-3-10.93H300l12.57,0h.35c1.22,4.16,2.57,8.28,4.05,12.33q1.59,4.42,3.4,8.76h-.49A204.94,204.94,0,0,0,345.35,507.79Z"/><path class="cls-1" d="M781.09,443.08c-10.39,20.57-24.14,36.44-48.27,47.34-19.85,9-40.43,14.11-56.43,17.14h-1.56q5.5-7.37,10.32-15.23a272.86,272.86,0,0,0,20.92-49.62h1.09l71.84.19Z"/><path d="M345.35,507.79h-18.7c-7-1.25-14.12-2.24-14.12-2.24a235.66,235.66,0,0,1-53.71-17.14c-24.24-10.95-37.72-26.35-48.11-47h.58l37.48.1c10.67,4.86,28.58,8.59,52,11.06q-1.65-5.4-3-10.93H300l12.57,0h.35c1.22,4.16,2.57,8.28,4.05,12.33q1.59,4.42,3.4,8.76h-.49A204.94,204.94,0,0,0,345.35,507.79Z"/><path d="M781.09,443.08c-10.39,20.57-24.14,36.44-48.27,47.34-19.85,9-40.43,14.11-56.43,17.14h-1.56q5.5-7.37,10.32-15.23a272.86,272.86,0,0,0,20.92-49.62h1.09l71.84.19Z"/></svg>