<svg id="Layer_1" data-name="Layer 1" xmlns="http://www.w3.org/2000/svg" viewBox="0 0 568.19 610.18">
  <defs>
    <style>
      .cls-1 {
        stroke: #000;
        stroke-miterlimit: 10;
        stroke-width: 5px;
      }
    </style>
  </defs>
  <g>
    <path class="cls-1" d="M760.69,783.61h-3.33a8.3,8.3,0,0,1-8.32-8.7,129.53,129.53,0,0,0-1.3-22.75c-11.25-87.22-82.9-160-170.8-169.07-55.18-5.68-110.86-5-166-1.23C307.24,589,229.62,668.8,225.54,767.68c-.11,2.57-.12,5,0,7.22a8.35,8.35,0,0,1-8.31,8.71h-3.12a8.28,8.28,0,0,1-8.32-8.38q0-1,.06-2c5.55-120.52,99.68-211.2,220.06-211.57,47.24-.14,94.62-1.63,141.68,1.37,105.55,6.72,187.6,87.37,199,192.51.71,6.55,2.23,13.07,2.41,19.62v.09A8.2,8.2,0,0,1,760.69,783.61Z" transform="translate(-203.24 -175.93)"/>
    <path class="cls-1" d="M487.77,178.43c-90.07-.49-160.68,70.66-160.7,161.94,0,89.18,70.05,158.88,159.79,159C578.09,499.43,647,430.75,647,339.73,647,248.91,577.94,178.93,487.77,178.43Zm-.61,302.18c-78.69-.16-141.11-63-141.14-141.47,0-75.14,58.37-140.35,141.47-141.68,78-1.25,141.32,64.5,141,143.58C628.11,418.57,565.13,480.78,487.16,480.61Z" transform="translate(-203.24 -175.93)"/>
  </g>
</svg>
