<svg id="f7c1aa0f-7639-4214-93b8-018e16adc2c5" data-name="Layer 1" xmlns="http://www.w3.org/2000/svg" viewBox="0 0 1000 1000"><defs><style>.bfc686b3-43d6-4bb2-9174-ecccb346e080{fill:none;stroke:#231f20;stroke-miterlimit:10;stroke-width:3px;}.aafdf806-34f4-498c-8872-8e9e08d5e918{fill:#fff;}</style></defs><path class="bfc686b3-43d6-4bb2-9174-ecccb346e080" d="M945,675.78V318.06C945,174.42,828.57,58,684.93,58H321.05A259,259,0,0,0,200.11,87.75"/><path class="bfc686b3-43d6-4bb2-9174-ecccb346e080" d="M61.11,309.47q-.13,4.27-.14,8.59V681.94c0,141.77,113.43,257,254.5,260q2.77.06,5.58.06H684.93A260.13,260.13,0,0,0,939.22,736.73"/><path class="bfc686b3-43d6-4bb2-9174-ecccb346e080" d="M104.9,173.38a258.52,258.52,0,0,0-34.52,75.14"/><path class="bfc686b3-43d6-4bb2-9174-ecccb346e080" d="M339.73,58C210.18,58,105.15,203.33,105.15,335.52"/><path class="bfc686b3-43d6-4bb2-9174-ecccb346e080" d="M834.44,766.4C864.92,727.88,876,677.69,877,622.49v-5.23l-.6-303.46c0-87.12-48.83-153.16-130.83-192.6"/><path class="bfc686b3-43d6-4bb2-9174-ecccb346e080" d="M314.38,900.83q10,1.11,20.32,1.33c1.67,0,3.34.05,5,.05h328.2l5.63-.05C742.68,900.74,798,868.9,834.44,819"/><path class="bfc686b3-43d6-4bb2-9174-ecccb346e080" d="M105.28,327.62c-.08,2.62-.13,5.25-.13,7.9V670.41c0,107.6,49.61,231.8,145.38,261.93"/><path class="bfc686b3-43d6-4bb2-9174-ecccb346e080" d="M140.27,131.09q8.92-8.62,18.66-16.4"/><path class="bfc686b3-43d6-4bb2-9174-ecccb346e080" d="M835.29,304.26C828.11,167,714.57,58,575.56,58A260.09,260.09,0,0,0,315.47,318.06v388.2"/><path class="bfc686b3-43d6-4bb2-9174-ecccb346e080" d="M835.29,304.26c0-143.62-180.48-287.34-259.73-208.09-102.62,102.62-158.29,81.31-183.91,76.18-58.43-11.71-80,110.33-76.18,183.9"/><path class="bfc686b3-43d6-4bb2-9174-ecccb346e080" d="M315.47,767.21V942h380.2a140,140,0,0,0,140-140V365.22"/><path class="bfc686b3-43d6-4bb2-9174-ecccb346e080" d="M529.24,58c-127.75,0-234,92.11-255.93,213.54h-.51c-139.84-8.21-121.26,112-121.26,273.72V708.38c0,107.6,38.5,201.14,134.27,231.27"/><path class="bfc686b3-43d6-4bb2-9174-ecccb346e080" d="M316.4,942c-26.09,0-47.25-108.37-47.25-141.67V389.65"/><path class="bfc686b3-43d6-4bb2-9174-ecccb346e080" d="M274.75,263.31C299.9,146,404.21,58,529.06,58"/><rect class="bfc686b3-43d6-4bb2-9174-ecccb346e080" x="316.68" y="235.5" width="517.76" height="547.58" rx="258.88" transform="translate(1151.11 1018.58) rotate(-180)"/><path class="aafdf806-34f4-498c-8872-8e9e08d5e918" d="M123.48,122.15a19.84,19.84,0,0,1,4.65.34c4.54.8,8.76,3.82,12.14,8.6,4.82,6.77,8,17.08,8,29.68,0,.54,0,1.08,0,1.61h1.24c0-.53,0-1.07,0-1.61,0-21.5,9.14-36.33,20.1-38.28a19.84,19.84,0,0,1,4.65-.34c.21,0,.21-.94,0-.94a40.94,40.94,0,0,1-4.65-.37c-3.88-.38-7.52-2.55-10.6-6.15-5.7-6.62-9.5-18.09-9.5-32,0-.88,0-1.75,0-2.62h-1.3c0,.87,0,1.74,0,2.62,0,21.52-9,37.11-20.1,38.2a40.94,40.94,0,0,1-4.65.37C123.27,121.21,123.27,122.15,123.48,122.15Z"/><path d="M924.84,931.59a40.94,40.94,0,0,0,4.65-.37c11.06-1.09,20.1-16.68,20.1-38.2,0-.88,0-1.75-.05-2.62h1.3c0,.87-.05,1.74-.05,2.62,0,21.52,9,37.11,20.1,38.2a40.94,40.94,0,0,0,4.65.37c.21,0,.21.94,0,.94a19.84,19.84,0,0,0-4.65.34c-11,2-20.1,16.78-20.1,38.28,0,.54,0,1.08,0,1.61h-1.24c0-.53,0-1.07,0-1.61,0-21.5-9.14-36.33-20.1-38.28a19.84,19.84,0,0,0-4.65-.34C924.63,932.53,924.63,931.59,924.84,931.59Z"/><path d="M926,73.58a40.94,40.94,0,0,1,4.65.37c11.06,1.09,20.1,16.68,20.1,38.2,0,.88,0,1.74-.05,2.61H952c0-.87-.05-1.73-.05-2.61,0-21.52,9-37.11,20.1-38.2a40.94,40.94,0,0,1,4.65-.37c.21,0,.21-1,0-1A20.62,20.62,0,0,1,972,72.3c-11-2-20.1-16.78-20.1-38.29,0-.53,0-1.08,0-1.6h-1.24c0,.52,0,1.07,0,1.6,0,21.51-9.14,36.33-20.1,38.29a20.62,20.62,0,0,1-4.65.33C925.75,72.63,925.75,73.58,926,73.58Z"/><path d="M123.48,122.15a19.84,19.84,0,0,1,4.65.34c4.54.8,8.76,3.82,12.14,8.6,4.82,6.77,8,17.08,8,29.68,0,.54,0,1.08,0,1.61h1.24c0-.53,0-1.07,0-1.61,0-21.5,9.14-36.33,20.1-38.28a19.84,19.84,0,0,1,4.65-.34c.21,0,.21-.94,0-.94a40.94,40.94,0,0,1-4.65-.37c-3.88-.38-7.52-2.55-10.6-6.15-5.7-6.62-9.5-18.09-9.5-32,0-.88,0-1.75,0-2.62h-1.3c0,.87,0,1.74,0,2.62,0,21.52-9,37.11-20.1,38.2a40.94,40.94,0,0,1-4.65.37C123.27,121.21,123.27,122.15,123.48,122.15Z"/><path d="M244.16,331.53a19.84,19.84,0,0,1,4.65.34c4.54.8,8.76,3.82,12.14,8.6,4.82,6.77,8,17.08,8,29.68,0,.54,0,1.08,0,1.61h1.24c0-.53,0-1.07,0-1.61,0-21.5,9.14-36.33,20.1-38.28a19.84,19.84,0,0,1,4.65-.34c.21,0,.21-.94,0-.94a40.94,40.94,0,0,1-4.65-.37c-3.88-.38-7.52-2.55-10.6-6.15-5.7-6.62-9.5-18.09-9.5-32.05,0-.88,0-1.75.05-2.62h-1.3c0,.87.05,1.74.05,2.62,0,8.19-9,37.11-20.1,38.2a40.94,40.94,0,0,1-4.65.37C244,330.59,244,331.53,244.16,331.53Z"/><path d="M26.33,932.34H27c1.6,0,2.86.25,3.95.36,7.42.73,13.93,8,17.41,19.19a64.32,64.32,0,0,1,2.69,19c0,.25,0,.5,0,.75,0,.63,0,1.25,0,1.86h1.3c0-.61,0-1.23,0-1.86,0-.25,0-.5,0-.75,0-1.85.07-3.65.2-5.4v-.11c1.4-18.63,9.81-31.7,19.9-32.69a40.94,40.94,0,0,1,4.65-.37c.21,0,.21-.94,0-.94a20.42,20.42,0,0,1-4.65-.34c-11-2-20.1-16.78-20.1-38.29,0-.53,0-1.08,0-1.6H51.06c0,.52,0,1.07,0,1.6,0,21.51-9.14,36.33-20.1,38.29a18,18,0,0,1-3.95.33h-.7C26.12,931.4,26.12,932.34,26.33,932.34Z"/><path d="M68.45,74.52c10.33.55,16.1,6,17.76,16.55.25,1.58.68,5.1.68,5.1l.77-5a34.5,34.5,0,0,1,1.47-5.56c1.05-3.23,3-6.72,5.73-8.18a26.38,26.38,0,0,1,3.38-1.24c1.05-.37,2.34-.68,3.4-1,.52-.17,2.41-.64,2.86-.7a28.93,28.93,0,0,1-6.4-1.63,15.65,15.65,0,0,1-5.55-4c-2.68-3-4.28-7.37-5-11.61-.19-1.13-.37-3.92-.63-5-.09.46-.18,2.23-.28,2.73-.2.94-.6,3-.75,3.76a21.72,21.72,0,0,1-1.72,5.66,19.7,19.7,0,0,1-3.28,5.14,11.72,11.72,0,0,1-3.6,2.39C74.46,73.09,71.26,73.5,68.45,74.52Z"/><path d="M817.62,335.09c10.33.55,16.1,6,17.76,16.55.25,1.59.68,5.1.68,5.1l.77-5a35.4,35.4,0,0,1,1.47-5.57c1.05-3.22,3-6.72,5.73-8.17a23.36,23.36,0,0,1,3.39-1.24c1-.37,2.34-.69,3.39-1,.53-.16,2.41-.64,2.86-.69a30.07,30.07,0,0,1-6.4-1.63,15.8,15.8,0,0,1-5.55-4c-2.67-3.05-4.28-7.37-5-11.61-.19-1.13-.37-3.92-.63-5-.09.46-.19,2.24-.29,2.73-.2.94-.6,2.95-.75,3.76a21.49,21.49,0,0,1-1.72,5.66,19.67,19.67,0,0,1-3.27,5.14,11.59,11.59,0,0,1-3.61,2.39C823.63,333.66,820.43,334.07,817.62,335.09Z"/><path d="M298.65,737.08c10.33.55,16.1,6,17.77,16.56.24,1.58.67,5.09.67,5.09l.77-5a34,34,0,0,1,1.48-5.56c1-3.23,3-6.73,5.73-8.18a24,24,0,0,1,3.38-1.24c1.05-.37,2.34-.69,3.39-1,.53-.17,2.41-.65,2.86-.7a30,30,0,0,1-6.39-1.63,15.9,15.9,0,0,1-5.56-4,23.9,23.9,0,0,1-5-11.62c-.19-1.13-.37-3.92-.63-5-.09.46-.19,2.24-.29,2.74-.19.93-.59,2.94-.75,3.75a22,22,0,0,1-1.71,5.67A20.07,20.07,0,0,1,311.1,732a11.66,11.66,0,0,1-3.6,2.39C304.66,735.65,301.46,736.07,298.65,737.08Z"/><path d="M46.13,277.16C56.32,279,61.39,285,61.75,295.75c.06,1.6.06,5.14.06,5.14s1.16-4.13,1.37-4.9a34.2,34.2,0,0,1,2.14-5.34c1.43-3.08,3.78-6.31,6.68-7.42a22.49,22.49,0,0,1,3.5-.82c1.09-.25,2.41-.4,3.5-.61a29.14,29.14,0,0,1,2.92-.34,29.82,29.82,0,0,1-6.15-2.4,15.78,15.78,0,0,1-5-4.65,23.9,23.9,0,0,1-3.55-12.13c0-1.15.11-3.94,0-5.06-.15.44-.46,2.19-.62,2.67-.31.91-1,2.85-1.2,3.64A21.64,21.64,0,0,1,63,269a20,20,0,0,1-3.88,4.7,11.57,11.57,0,0,1-3.86,1.93C52.27,276.47,49,276.49,46.13,277.16Z"/><path d="M923.17,705.48c10.23,1.51,15.46,7.44,16.12,18.15.1,1.6.2,5.13.2,5.13l1.23-4.92a36.35,36.35,0,0,1,2-5.4c1.35-3.12,3.62-6.42,6.48-7.61a24.74,24.74,0,0,1,3.48-.91c1.08-.27,2.4-.46,3.48-.7.54-.12,2.46-.41,2.91-.43a29.9,29.9,0,0,1-6.21-2.22,15.61,15.61,0,0,1-5.15-4.52c-2.38-3.29-3.57-7.74-3.88-12-.09-1.14,0-3.94-.16-5.06-.13.45-.39,2.21-.54,2.7-.29.91-.87,2.87-1.1,3.67a21.63,21.63,0,0,1-2.24,5.48,19.85,19.85,0,0,1-3.75,4.8,11.74,11.74,0,0,1-3.81,2C929.28,704.62,926.06,704.73,923.17,705.48Z"/><path d="M909,868c10.25,1.41,15.54,7.28,16.32,18,.11,1.6.24,5.14.24,5.14s1-4.17,1.19-4.95a34.48,34.48,0,0,1,1.93-5.41c1.32-3.13,3.55-6.46,6.4-7.68a26.2,26.2,0,0,1,3.47-1c1.08-.28,2.39-.48,3.47-.73.54-.12,2.46-.44,2.91-.46a28.84,28.84,0,0,1-6.24-2.16,15.78,15.78,0,0,1-5.2-4.46,23.81,23.81,0,0,1-4-12c-.1-1.14,0-3.94-.21-5-.13.44-.37,2.21-.52,2.69-.27.92-.84,2.89-1.06,3.69a21.77,21.77,0,0,1-2.18,5.5,19.84,19.84,0,0,1-3.7,4.84,11.67,11.67,0,0,1-3.79,2.08C915.11,867.12,911.88,867.26,909,868Z"/><path d="M72,871.13c10.34-.34,16.55,4.55,19.12,15,.38,1.56,1.11,5,1.11,5s.28-4.28.33-5.07a35.06,35.06,0,0,1,1-5.67c.76-3.3,2.4-7,5-8.64a24.73,24.73,0,0,1,3.26-1.52c1-.46,2.27-.88,3.29-1.31.52-.21,2.35-.85,2.79-.94a29.82,29.82,0,0,1-6.51-1.08,15.75,15.75,0,0,1-5.87-3.52c-2.93-2.81-4.9-7-6-11.14-.29-1.11-.71-3.88-1.06-5,0,.46,0,2.24,0,2.75-.12,1-.34,3-.43,3.81a21.79,21.79,0,0,1-1.22,5.78A20.1,20.1,0,0,1,84,865a11.58,11.58,0,0,1-3.39,2.69C77.9,869.19,74.74,869.87,72,871.13Z"/></svg>